<svg width="38" height="38" viewBox="0 0 38 38" fill="none" xmlns="http://www.w3.org/2000/svg">
<g filter="url(#filter0_d)">
<path fill-rule="evenodd" clip-rule="evenodd" d="M18.0001 1C8.61245 1 1 8.61181 1 18.0022C1 25.5143 5.87106 31.8876 12.6257 34.1358C13.4753 34.2932 13.7873 33.767 13.7873 33.3179C13.7873 32.9125 13.7715 31.5731 13.7642 30.1524C9.03473 31.1809 8.03675 28.1463 8.03675 28.1463C7.26343 26.1811 6.14919 25.6585 6.14919 25.6585C4.60677 24.6032 6.26546 24.6249 6.26546 24.6249C7.97257 24.7446 8.87145 26.377 8.87145 26.377C10.3877 28.9763 12.8484 28.2249 13.8185 27.7904C13.9711 26.6918 14.4117 25.9412 14.8978 25.5169C11.1219 25.0869 7.15251 23.6291 7.15251 17.1142C7.15251 15.2579 7.81661 13.7412 8.9041 12.5505C8.72759 12.1219 8.1457 10.3929 9.06879 8.05096C9.06879 8.05096 10.4964 7.59399 13.745 9.79378C15.1011 9.41706 16.5554 9.22813 18.0001 9.22166C19.4449 9.22813 20.9003 9.41706 22.2589 9.79378C25.5036 7.59399 26.9292 8.05096 26.9292 8.05096C27.8546 10.3929 27.2724 12.1219 27.0959 12.5505C28.1859 13.7412 28.8455 15.2579 28.8455 17.1142C28.8455 23.6445 24.8685 25.0824 21.083 25.5034C21.6928 26.031 22.2361 27.0657 22.2361 28.652C22.2361 30.9267 22.2164 32.7576 22.2164 33.3179C22.2164 33.7703 22.5224 34.3005 23.3841 34.1336C30.1351 31.8828 35 25.5118 35 18.0022C35 8.61181 27.3887 1 18.0001 1Z" fill="#333333"/>
<path fill-rule="evenodd" clip-rule="evenodd" d="M7.43868 25.4115C7.40124 25.4963 7.26837 25.5213 7.14732 25.4633C7.02401 25.4079 6.95476 25.2927 6.99473 25.208C7.03133 25.121 7.16449 25.097 7.28751 25.1548C7.4111 25.2105 7.48147 25.3268 7.43868 25.4115Z" fill="#333333"/>
<path fill-rule="evenodd" clip-rule="evenodd" d="M8.12738 26.1796C8.0463 26.2548 7.88781 26.2199 7.78027 26.1011C7.66907 25.9826 7.64824 25.824 7.73044 25.7477C7.81405 25.6726 7.96776 25.7078 8.07924 25.8263C8.19044 25.9462 8.21211 26.1036 8.12738 26.1796Z" fill="#333333"/>
<path fill-rule="evenodd" clip-rule="evenodd" d="M8.79769 27.1589C8.69353 27.2313 8.52322 27.1634 8.41793 27.0122C8.31377 26.861 8.31377 26.6797 8.42018 26.6071C8.52575 26.5344 8.69353 26.5998 8.80023 26.7498C8.90411 26.9033 8.90411 27.0849 8.79769 27.1589Z" fill="#333333"/>
<path fill-rule="evenodd" clip-rule="evenodd" d="M9.71608 28.1049C9.6229 28.2077 9.42443 28.1801 9.27917 28.0399C9.13053 27.9028 9.08915 27.7082 9.18261 27.6054C9.27692 27.5024 9.47651 27.5314 9.6229 27.6705C9.77042 27.8073 9.81546 28.0033 9.71608 28.1049Z" fill="#333333"/>
<path fill-rule="evenodd" clip-rule="evenodd" d="M10.9828 28.6543C10.9417 28.7874 10.7506 28.848 10.558 28.7914C10.3658 28.7331 10.2399 28.5771 10.2788 28.4425C10.3187 28.3085 10.5107 28.2454 10.7047 28.306C10.8967 28.364 11.0228 28.5188 10.9828 28.6543Z" fill="#333333"/>
<path fill-rule="evenodd" clip-rule="evenodd" d="M12.3741 28.7561C12.3789 28.8964 12.2156 29.0126 12.0135 29.0149C11.8102 29.0197 11.6458 28.9062 11.6436 28.7683C11.6436 28.6266 11.8032 28.5115 12.0064 28.5081C12.2086 28.5042 12.3741 28.6168 12.3741 28.7561Z" fill="#333333"/>
<path fill-rule="evenodd" clip-rule="evenodd" d="M13.6689 28.5357C13.6931 28.6725 13.5526 28.813 13.3519 28.8502C13.1546 28.8865 12.9719 28.8021 12.9468 28.6664C12.9223 28.5261 13.0653 28.3856 13.2624 28.3493C13.4634 28.3144 13.6433 28.3966 13.6689 28.5357Z" fill="#333333"/>
</g>
<defs>
<filter id="filter0_d" x="0" y="0" width="38" height="37.165" filterUnits="userSpaceOnUse" color-interpolation-filters="sRGB">
<feFlood flood-opacity="0" result="BackgroundImageFix"/>
<feColorMatrix in="SourceAlpha" type="matrix" values="0 0 0 0 0 0 0 0 0 0 0 0 0 0 0 0 0 0 127 0"/>
<feOffset dx="1" dy="1"/>
<feGaussianBlur stdDeviation="1"/>
<feColorMatrix type="matrix" values="0 0 0 0 0 0 0 0 0 0 0 0 0 0 0 0 0 0 0.25 0"/>
<feBlend mode="normal" in2="BackgroundImageFix" result="effect1_dropShadow"/>
<feBlend mode="normal" in="SourceGraphic" in2="effect1_dropShadow" result="shape"/>
</filter>
</defs>
</svg>

