<svg width="38" height="38" viewBox="0 0 38 38" fill="none" xmlns="http://www.w3.org/2000/svg">
<g filter="url(#filter0_d)">
<path fill-rule="evenodd" clip-rule="evenodd" d="M18 1C8.61116 1 1 8.61116 1 18C1 27.3888 8.61116 35 18 35C27.3888 35 35 27.3888 35 18C35 8.61116 27.3888 1 18 1ZM17.5265 15.4061L17.4909 14.8178C17.3838 13.2932 18.3232 11.9006 19.8096 11.3604C20.3566 11.1683 21.2841 11.1443 21.8906 11.3124C22.1284 11.3844 22.5803 11.6245 22.9013 11.8406L23.484 12.2368L24.1261 12.0327C24.4828 11.9246 24.9585 11.7446 25.1725 11.6245C25.3747 11.5165 25.5531 11.4565 25.5531 11.4925C25.5531 11.6965 25.1131 12.3928 24.7445 12.777C24.245 13.3172 24.3877 13.3652 25.3985 13.0051C26.0049 12.801 26.0168 12.801 25.8979 13.0291C25.8265 13.1491 25.4579 13.5693 25.0655 13.9535C24.3996 14.6137 24.3639 14.6858 24.3639 15.238C24.3639 16.0903 23.9596 17.867 23.5553 18.8394C22.8062 20.6642 21.2009 22.5489 19.5956 23.4973C17.3363 24.8299 14.3278 25.166 11.795 24.3857C10.9507 24.1216 9.5 23.4493 9.5 23.3293C9.5 23.2932 9.93997 23.2452 10.4751 23.2332C11.5928 23.2092 12.7106 22.8971 13.6619 22.3449L14.304 21.9607L13.5668 21.7086C12.5204 21.3485 11.581 20.5201 11.3431 19.7398C11.2718 19.4877 11.2956 19.4757 11.9615 19.4757L12.6512 19.4637L12.0685 19.1876C11.3788 18.8394 10.7486 18.2512 10.4394 17.651C10.2135 17.2188 9.92808 16.1263 10.0113 16.0423C10.0351 16.0063 10.2848 16.0783 10.5702 16.1744C11.3907 16.4745 11.4977 16.4025 11.0221 15.8983C10.1302 14.9859 9.85673 13.6293 10.2848 12.3448L10.487 11.7686L11.2718 12.5489C12.8771 14.1215 14.7678 15.0579 16.932 15.334L17.5265 15.4061Z" fill="#1DA1F2"/>
</g>
<defs>
<filter id="filter0_d" x="0" y="0" width="38" height="38" filterUnits="userSpaceOnUse" color-interpolation-filters="sRGB">
<feFlood flood-opacity="0" result="BackgroundImageFix"/>
<feColorMatrix in="SourceAlpha" type="matrix" values="0 0 0 0 0 0 0 0 0 0 0 0 0 0 0 0 0 0 127 0"/>
<feOffset dx="1" dy="1"/>
<feGaussianBlur stdDeviation="1"/>
<feColorMatrix type="matrix" values="0 0 0 0 0 0 0 0 0 0 0 0 0 0 0 0 0 0 0.25 0"/>
<feBlend mode="normal" in2="BackgroundImageFix" result="effect1_dropShadow"/>
<feBlend mode="normal" in="SourceGraphic" in2="effect1_dropShadow" result="shape"/>
</filter>
</defs>
</svg>

