<svg width="579" height="244" viewBox="0 0 579 244" fill="none" xmlns="http://www.w3.org/2000/svg">
<g clip-path="url(#clip0)">
<path d="M81.4381 160.141C76.7244 160.141 72.9033 156.32 72.9033 151.606C72.9033 146.893 76.7244 143.072 81.4381 143.072C86.1517 143.072 89.9729 146.893 89.9729 151.606C89.9729 156.32 86.1517 160.141 81.4381 160.141Z" fill="#F6E266"/>
<path d="M81.4382 143.072C82.1822 143.072 82.9036 143.167 83.5918 143.346C79.9208 144.3 77.2106 147.637 77.2106 151.606C77.2106 155.576 79.921 158.912 83.5918 159.866C82.9039 160.045 82.1822 160.141 81.4382 160.141C76.7246 160.141 72.9033 156.319 72.9033 151.606C72.9033 146.893 76.7246 143.072 81.4382 143.072Z" fill="#FFD064"/>
<path d="M71.8572 193.055H82.1319C83.0002 193.055 83.7041 193.758 83.7041 194.627V202.296H70.285V194.627C70.285 193.758 70.9889 193.055 71.8572 193.055Z" fill="#407093"/>
<path d="M71.8566 193.055H76.7334C75.8656 193.055 75.1621 193.758 75.1621 194.626V202.296H70.2853V194.626C70.2851 193.758 70.9887 193.055 71.8566 193.055Z" fill="#365E7D"/>
<path d="M59.3893 132.909L68.3837 125.666C69.6008 124.686 70.3087 123.208 70.3087 121.645V102.846C70.3087 100.987 71.8162 99.4792 73.6758 99.4792H89.202C91.0617 99.4792 92.5692 100.987 92.5692 102.846V121.645C92.5692 123.207 93.2768 124.686 94.4939 125.666L103.488 132.909C106.64 135.447 108.473 139.277 108.473 143.325V151.225C108.473 152.465 107.468 153.47 106.228 153.47H56.6479C55.4082 153.47 54.4031 152.465 54.4031 151.225V143.325C54.4033 139.277 56.2367 135.447 59.3893 132.909Z" fill="#95D6A4"/>
<path d="M59.3894 132.909L68.3838 125.666C69.6008 124.686 70.3088 123.208 70.3088 121.645V102.846C70.3088 100.987 71.8162 99.4792 73.6759 99.4792H84.4719C82.6123 99.4792 81.1048 100.987 81.1048 102.846V121.645C81.1048 123.208 80.3971 124.686 79.1798 125.666L70.1855 132.909C67.0328 135.447 65.1995 139.277 65.1995 143.325V151.225C65.1995 152.464 66.2045 153.47 67.4443 153.47H56.6483C55.4085 153.47 54.4034 152.464 54.4034 151.225V143.325C54.4034 139.277 56.2368 135.447 59.3894 132.909Z" fill="#78C2A4"/>
<path d="M47.4968 193.908L51.5445 188.526L16.6149 162.258L49.0331 118.505H75.2415V111.771H45.6415L9.24636 160.89C8.12653 162.402 8.43603 164.533 9.93923 165.664L47.4968 193.908Z" fill="#407093"/>
<path d="M9.24645 160.89L45.6413 111.771H49.4542L13.7246 159.993C12.6048 161.504 12.9143 163.635 14.4175 164.766L49.5457 191.184L47.4967 193.908L9.93932 165.664C8.43611 164.533 8.12662 162.402 9.24645 160.89Z" fill="#365E7D"/>
<path d="M42.3594 187.135H54.2885C54.9731 187.135 55.6203 187.448 56.0464 187.984L61.7857 195.201C62.1965 195.718 62.4202 196.358 62.4202 197.019V203.282H34.2277V197.019C34.2277 196.358 34.4514 195.718 34.8622 195.201L40.6015 187.984C41.0275 187.448 41.6746 187.135 42.3594 187.135Z" fill="#365E7D"/>
<path d="M34.8613 195.202L40.6013 187.983C41.0271 187.447 41.6742 187.135 42.3583 187.135H51.0452C50.3608 187.135 49.714 187.448 49.2882 187.983L43.5482 195.202C43.1376 195.718 42.9142 196.358 42.9142 197.018V203.282H34.2273V197.018C34.2273 196.358 34.4508 195.718 34.8613 195.202Z" fill="#2B4D66"/>
<path d="M47.4652 120.986C44.4833 120.986 42.066 118.569 42.066 115.587C42.066 112.605 44.4833 110.188 47.4652 110.188C50.4472 110.188 52.8645 112.605 52.8645 115.587C52.8645 118.569 50.4472 120.986 47.4652 120.986Z" fill="#365E7D"/>
<path d="M45.7466 110.469C45.5653 111.008 45.4656 111.586 45.4656 112.187C45.4656 115.169 47.8829 117.586 50.8649 117.586C51.4659 117.586 52.0433 117.486 52.5833 117.305C51.8654 119.444 49.8459 120.986 47.4647 120.986C44.4828 120.986 42.0655 118.569 42.0655 115.587C42.0657 113.206 43.6076 111.187 45.7466 110.469Z" fill="#2B4D66"/>
<path d="M11.9189 168.257C8.93693 168.257 6.51961 165.84 6.51961 162.858C6.51961 159.876 8.93693 157.459 11.9189 157.459C14.9008 157.459 17.3181 159.876 17.3181 162.858C17.3181 165.84 14.9008 168.257 11.9189 168.257Z" fill="#365E7D"/>
<path d="M10.2007 157.739C10.0194 158.279 9.91972 158.857 9.91972 159.458C9.91972 162.44 12.337 164.857 15.319 164.857C15.92 164.857 16.4974 164.757 17.0374 164.576C16.3195 166.715 14.3 168.257 11.9188 168.257C8.9369 168.257 6.51959 165.84 6.51959 162.858C6.51959 160.477 8.06143 158.457 10.2007 157.739Z" fill="#2B4D66"/>
<path d="M77.2895 122.119C73.4337 122.119 70.308 118.994 70.308 115.138C70.308 111.282 73.4337 108.156 77.2895 108.156C81.1453 108.156 84.271 111.282 84.271 115.138C84.271 118.994 81.1453 122.119 77.2895 122.119Z" fill="#365E7D"/>
<path d="M74.4813 108.746C74.1033 109.606 73.8918 110.555 73.8918 111.554C73.8918 115.41 77.0174 118.535 80.8733 118.535C81.8725 118.535 82.8219 118.324 83.6812 117.946C82.6002 120.403 80.1458 122.119 77.2892 122.119C73.4334 122.119 70.3077 118.994 70.3077 115.138C70.3079 112.281 72.0242 109.827 74.4813 108.746Z" fill="#2B4D66"/>
<path d="M29.0897 211.104H87.1107C88.3512 211.104 89.3567 210.099 89.3567 208.858V202.779C89.3567 201.538 88.3512 200.533 87.1107 200.533H29.0897C27.8492 200.533 26.8437 201.538 26.8437 202.779V208.858C26.8437 210.099 27.8495 211.104 29.0897 211.104Z" fill="#95D6A4"/>
<path d="M29.0885 200.533H31.2642V204.439C31.2642 205.679 32.2692 206.684 33.509 206.684H89.3567V208.86C89.3567 210.099 88.3516 211.104 87.1119 211.104H29.0885C27.8488 211.104 26.8437 210.099 26.8437 208.86V202.778C26.8437 201.538 27.8488 200.533 29.0885 200.533Z" fill="#78C2A4"/>
<path d="M10.8846 155.851L14.4718 151.01C15.0254 150.262 16.0799 150.106 16.8269 150.659C17.5739 151.213 17.7309 152.267 17.1775 153.014L14.7074 156.348C15.7594 156.8 16.6805 157.5 17.3972 158.374L44.3775 121.96C43.3488 121.46 42.4585 120.718 41.7812 119.808L21.501 147.179C21.1706 147.625 20.6621 147.86 20.1469 147.86C19.7985 147.86 19.447 147.753 19.1459 147.529C18.3989 146.976 18.2419 145.922 18.7953 145.175L40.3846 116.037C40.3885 116.032 40.393 116.028 40.3968 116.023C40.388 115.879 40.3822 115.734 40.3822 115.587C40.3822 111.682 43.5595 108.505 47.465 108.505C49.1526 108.505 50.7036 109.099 51.9216 110.088H68.6247V102.846C68.6247 100.061 70.8906 97.7954 73.6754 97.7954H89.2016C91.9866 97.7954 94.2523 100.061 94.2523 102.846V121.645C94.2523 122.703 94.7251 123.691 95.5493 124.355L100.431 128.286C101.155 128.869 101.27 129.929 100.686 130.653C100.354 131.066 99.8663 131.281 99.374 131.281C99.0034 131.281 98.6303 131.159 98.319 130.908L93.4372 126.977C91.8152 125.671 90.885 123.727 90.885 121.645V102.846C90.885 101.918 90.1296 101.163 89.2014 101.163H73.6752C72.7467 101.163 71.9916 101.918 71.9916 102.846V108.288C73.4575 107.152 75.2949 106.473 77.2889 106.473C82.0667 106.473 85.9538 110.36 85.9538 115.138C85.9538 119.916 82.0667 123.803 77.2889 123.803C75.2907 123.803 73.4497 123.122 71.9822 121.981C71.8876 123.936 70.9735 125.742 69.4391 126.977L60.4448 134.22C57.6751 136.45 56.0863 139.769 56.0863 143.325V151.225C56.0863 151.534 56.338 151.786 56.6475 151.786H106.228C106.538 151.786 106.79 151.534 106.79 151.225V143.324C106.79 140.431 105.723 137.653 103.787 135.502C103.165 134.811 103.221 133.747 103.912 133.125C104.603 132.503 105.667 132.558 106.29 133.249C108.783 136.019 110.157 139.597 110.157 143.324V151.224C110.157 153.39 108.394 155.153 106.228 155.153H91.0224C89.5549 159.125 85.7449 161.824 81.4381 161.824C77.1333 161.824 73.3217 159.125 71.8539 155.153H56.648C54.482 155.153 52.7196 153.391 52.7196 151.224V143.325C52.7196 138.744 54.7657 134.469 58.3333 131.597L67.3277 124.355C68.1522 123.691 68.6249 122.703 68.6249 121.645V120.189H52.8427C51.6645 121.564 49.9703 122.483 48.0626 122.643L18.9626 161.917C18.9626 161.917 50.2338 185.437 50.2518 185.452H54.2888C55.4929 185.452 56.6138 185.993 57.3635 186.935L63.1035 194.154C63.7485 194.965 64.1036 195.982 64.1036 197.018V198.849H68.6016V194.626C68.6016 192.831 70.0617 191.371 71.8564 191.371H82.1327C83.9275 191.371 85.3876 192.831 85.3876 194.626V198.849H87.1118C89.2778 198.849 91.0401 200.611 91.0401 202.778V208.86C91.0401 211.026 89.2778 212.788 87.1118 212.788H50.9749C50.0451 212.788 49.2914 212.034 49.2914 211.104C49.2914 210.175 50.0451 209.421 50.9749 209.421H87.1118C87.4213 209.421 87.673 209.169 87.673 208.86V202.778C87.673 202.468 87.4213 202.216 87.1118 202.216H29.0884C28.7789 202.216 28.5272 202.468 28.5272 202.778V208.86C28.5272 209.169 28.7789 209.421 29.0884 209.421H43.0499C43.9797 209.421 44.7335 210.175 44.7335 211.104C44.7335 212.034 43.9797 212.788 43.0499 212.788H29.0884C26.9224 212.788 25.16 211.026 25.16 208.86V202.778C25.16 200.612 26.9222 198.849 29.0884 198.849H32.5438V197.018C32.5438 195.983 32.8987 194.966 33.5437 194.154L37.8391 188.752L12.7568 169.89C12.4817 169.922 12.2025 169.941 11.9189 169.941C8.01337 169.941 4.83604 166.763 4.83604 162.858C4.83582 159.304 7.46761 156.353 10.8846 155.851ZM81.4381 158.458C83.8798 158.458 86.0793 157.162 87.2966 155.153H75.5797C76.7975 157.161 78.9976 158.458 81.4381 158.458ZM77.2893 120.436C80.2106 120.436 82.5871 118.059 82.5871 115.138C82.5871 112.217 80.2106 109.84 77.2893 109.84C74.368 109.84 71.9914 112.217 71.9914 115.138C71.9914 118.059 74.368 120.436 77.2893 120.436ZM68.6247 116.822V113.455H54.219C54.4321 114.128 54.5476 114.844 54.5476 115.587C54.5476 116.008 54.5085 116.421 54.4375 116.822H68.6247ZM51.1807 115.587C51.1807 113.538 49.5137 111.871 47.465 111.871C45.4162 111.871 43.7493 113.538 43.7493 115.587C43.7493 117.636 45.4162 119.303 47.465 119.303C49.5137 119.303 51.1807 117.636 51.1807 115.587ZM82.0204 194.738H71.9685V198.849H82.0204V194.738ZM35.9109 197.018V198.849H60.7363V197.018C60.7363 196.74 60.6408 196.467 60.4679 196.25L54.7279 189.031C54.6208 188.896 54.4607 188.819 54.2886 188.819H42.3586C42.1866 188.819 42.0264 188.896 41.9193 189.031L36.1793 196.249C36.0062 196.467 35.9109 196.74 35.9109 197.018ZM40.0536 186.205C40.7161 185.722 41.5153 185.452 42.3586 185.452H44.6555L18.4011 165.708C17.9389 166.755 17.2307 167.669 16.3494 168.378L40.0536 186.205ZM11.9189 166.574C13.9676 166.574 15.6345 164.907 15.6345 162.858C15.6345 160.809 13.9676 159.142 11.9189 159.142C9.8701 159.142 8.20316 160.809 8.20316 162.858C8.20293 164.907 9.86987 166.574 11.9189 166.574Z" fill="black"/>
<path d="M79.7547 173.301V168.194C79.7547 167.264 80.5084 166.51 81.4383 166.51C82.3681 166.51 83.1218 167.264 83.1218 168.194V173.301C83.1218 174.231 82.3681 174.984 81.4383 174.984C80.5082 174.984 79.7547 174.231 79.7547 173.301Z" fill="black"/>
<path d="M94.5455 163.306C95.2676 162.719 96.3276 162.83 96.9138 163.551L100.278 167.694C100.864 168.415 100.754 169.476 100.032 170.062C99.7201 170.315 99.3448 170.439 98.972 170.439C98.4822 170.439 97.9968 170.226 97.664 169.816L94.3 165.674C93.7138 164.952 93.8239 163.892 94.5455 163.306Z" fill="black"/>
<path d="M63.9503 170.439C63.5775 170.439 63.2022 170.315 62.89 170.062C62.1684 169.476 62.0583 168.415 62.6445 167.694L66.0085 163.552C66.5947 162.83 67.6547 162.72 68.3768 163.306C69.0984 163.892 69.2085 164.953 68.6223 165.674L65.2583 169.816C64.9255 170.226 64.4401 170.439 63.9503 170.439Z" fill="black"/>
</g>
<g clip-path="url(#clip1)">
<path d="M519.773 144.758H530.344C531.209 144.758 531.91 145.459 531.91 146.324V190.514H518.207V146.324C518.207 145.459 518.908 144.758 519.773 144.758Z" fill="#037E73"/>
<path d="M466.775 211.692C464.794 211.692 463.189 210.087 463.189 208.107V202.005H470.36V208.107C470.36 210.087 468.755 211.692 466.775 211.692Z" fill="#7C4B37"/>
<path d="M528.53 211.692C526.55 211.692 524.945 210.087 524.945 208.107V202.005H532.115V208.107C532.115 210.087 530.51 211.692 528.53 211.692Z" fill="#7C4B37"/>
<path d="M504.504 190.514H490.801V140.321C490.801 139.456 491.502 138.755 492.367 138.755H502.938C503.803 138.755 504.504 139.456 504.504 140.321V190.514Z" fill="#E53950"/>
<path d="M490.801 190.514H477.098V140.321C477.098 139.456 477.799 138.755 478.664 138.755H489.235C490.1 138.755 490.801 139.456 490.801 140.321V190.514Z" fill="#0078C8"/>
<path d="M477.098 148.826H490.801V155.524H477.098V148.826Z" fill="#7BACDF"/>
<path d="M477.098 190.514H463.395V140.321C463.395 139.456 464.096 138.755 464.961 138.755H475.532C476.397 138.755 477.098 139.456 477.098 140.321V190.514Z" fill="#FEC165"/>
<path d="M506.07 144.758H516.641C517.506 144.758 518.207 145.459 518.207 146.324V190.514H504.504V146.324C504.504 145.459 505.205 144.758 506.07 144.758Z" fill="#0078C8"/>
<path d="M540.566 203.31H454.502C453.608 203.31 452.885 202.586 452.885 201.693V192.131C452.885 191.237 453.608 190.514 454.502 190.514H540.566C541.459 190.514 542.183 191.237 542.183 192.131V201.693C542.183 202.586 541.459 203.31 540.566 203.31Z" fill="#AA6A51"/>
<path d="M540.566 190.514H533.436C534.329 190.514 535.053 191.238 535.053 192.131V201.693C535.053 202.586 534.329 203.31 533.436 203.31H540.566C541.46 203.31 542.184 202.586 542.184 201.693V192.131C542.184 191.238 541.46 190.514 540.566 190.514Z" fill="#935B44"/>
<path d="M475.532 138.755H469.42C470.285 138.755 470.986 139.456 470.986 140.321V190.514H477.098V140.321C477.098 139.456 476.397 138.755 475.532 138.755Z" fill="#FDB441"/>
<path d="M516.641 144.758H510.529C511.394 144.758 512.095 145.459 512.095 146.324V190.514H518.207V146.324C518.207 145.459 517.506 144.758 516.641 144.758Z" fill="#0268B4"/>
<path d="M530.344 144.758H524.232C525.097 144.758 525.798 145.459 525.798 146.324V190.514H531.91V146.324C531.91 145.459 531.209 144.758 530.344 144.758Z" fill="#006E66"/>
<path d="M502.938 138.755H496.826C497.691 138.755 498.392 139.456 498.392 140.321V190.514H504.504V140.321C504.504 139.456 503.803 138.755 502.938 138.755Z" fill="#CA2E43"/>
<path d="M490.801 148.826H504.504V155.524H490.801V148.826Z" fill="#FEE8C7"/>
<path d="M498.392 148.826H504.504V155.524H498.392V148.826Z" fill="#FEDBA6"/>
<path d="M518.207 181.61H504.504V175.689H518.207V181.61Z" fill="#7BACDF"/>
<path d="M512.095 175.689H518.207V181.61H512.095V175.689Z" fill="#5F99D7"/>
<path d="M531.91 181.61H518.207V175.689H531.91V181.61Z" fill="#0AB69F"/>
<path d="M525.798 175.689H531.91V181.61H525.798V175.689Z" fill="#01998D"/>
<path d="M489.235 138.755H483.123C483.988 138.755 484.689 139.456 484.689 140.321V190.514H490.801V140.321C490.801 139.456 490.1 138.755 489.235 138.755Z" fill="#0268B4"/>
<path d="M484.689 148.826H490.801V155.524H484.689V148.826Z" fill="#5F99D7"/>
<path d="M463.395 148.826H477.098V155.524H463.395V148.826Z" fill="#FEE8C7"/>
<path d="M470.986 148.826H477.098V155.524H470.986V148.826Z" fill="#FEDBA6"/>
<path d="M540.566 189.166H533.258C533.258 188.343 533.258 146.995 533.258 146.324C533.258 144.718 531.951 143.411 530.344 143.411H519.773C519.196 143.411 518.66 143.581 518.207 143.871C517.754 143.581 517.217 143.411 516.641 143.411H506.07C505.996 143.411 505.924 143.416 505.851 143.422V140.321C505.851 138.714 504.544 137.407 502.938 137.407H492.367C491.79 137.407 491.254 137.578 490.801 137.868C490.348 137.578 489.811 137.407 489.235 137.407H478.664C478.087 137.407 477.55 137.578 477.098 137.868C476.645 137.578 476.108 137.407 475.532 137.407H464.961C463.354 137.407 462.047 138.714 462.047 140.321V168.461C462.047 169.206 462.65 169.809 463.395 169.809C464.139 169.809 464.742 169.206 464.742 168.461V156.872H475.75V189.166H464.742V174.75C464.742 174.006 464.139 173.402 463.395 173.402C462.65 173.402 462.047 174.006 462.047 174.75V189.166H454.502C452.867 189.166 451.537 190.496 451.537 192.131V201.693C451.537 203.328 452.867 204.658 454.502 204.658H461.842V208.107C461.842 210.827 464.055 213.04 466.775 213.04C469.495 213.04 471.708 210.827 471.708 208.107V204.658H510.92C511.664 204.658 512.267 204.055 512.267 203.31C512.267 202.566 511.664 201.963 510.92 201.963C510.446 201.963 455.516 201.963 454.502 201.963C454.353 201.963 454.232 201.842 454.232 201.693V192.131C454.232 191.982 454.353 191.861 454.502 191.861H540.566C540.715 191.861 540.836 191.982 540.836 192.131V201.693C540.836 201.842 540.715 201.963 540.566 201.963C539.725 201.963 518.069 201.963 517.208 201.963C516.464 201.963 515.861 202.566 515.861 203.31C515.861 204.055 516.464 204.658 517.208 204.658H523.597V208.107C523.597 210.827 525.81 213.04 528.53 213.04C531.25 213.04 533.463 210.827 533.463 208.107V204.658H540.566C542.201 204.658 543.531 203.328 543.531 201.693V192.131C543.531 190.496 542.201 189.166 540.566 189.166ZM469.012 204.658V208.107C469.012 209.341 468.009 210.345 466.775 210.345C465.541 210.345 464.537 209.341 464.537 208.107V204.658H469.012ZM478.445 150.174H489.453V154.177H478.445V150.174ZM492.148 150.174H503.156V154.177H492.148V150.174ZM505.851 177.037H516.859V180.263H505.851V177.037ZM519.555 177.037H530.563V180.263H519.555V177.037ZM519.773 146.106H530.344C530.464 146.106 530.563 146.204 530.563 146.324V174.342H519.554V146.324C519.555 146.204 519.653 146.106 519.773 146.106ZM506.07 146.106H516.641C516.761 146.106 516.859 146.204 516.859 146.324V174.342H505.851C505.851 173.023 505.851 147.356 505.851 146.324C505.851 146.204 505.949 146.106 506.07 146.106ZM492.367 140.102H502.938C503.058 140.102 503.156 140.2 503.156 140.321V146.324V147.479H492.148V140.321C492.148 140.2 492.246 140.102 492.367 140.102ZM478.664 140.102H489.235C489.355 140.102 489.453 140.2 489.453 140.321V147.479H478.445V140.321C478.445 140.2 478.543 140.102 478.664 140.102ZM464.961 140.102H475.531C475.652 140.102 475.75 140.2 475.75 140.321V147.479H464.742V140.321C464.742 140.2 464.84 140.102 464.961 140.102ZM464.742 150.174H475.75V154.177H464.742V150.174ZM478.445 156.872H489.453V189.166H478.445V156.872ZM492.148 156.872H503.156V189.166H492.148V156.872ZM505.851 182.958H516.859V189.166H505.851V182.958ZM519.555 189.166V182.958H530.563V189.166H519.555ZM530.768 208.107C530.768 209.341 529.764 210.345 528.53 210.345C527.296 210.345 526.292 209.341 526.292 208.107V204.658H530.768V208.107Z" fill="black"/>
</g>
<path d="M251.88 25.9594C257.63 14.8435 329.309 14.8434 335.442 25.9594C341.574 37.0753 352.69 84.2218 352.69 88.0551C352.69 91.8884 376.456 117.57 377.605 122.553C378.755 127.536 379.522 168.167 377.605 170.083C375.689 172 343.108 204.581 343.108 204.581H245.364C245.364 204.581 213.549 175.066 210.866 170.083C208.183 165.1 209.333 127.536 210.866 122.553C212.4 117.57 240.764 93.0379 240.764 88.0551C240.764 83.0723 246.131 37.0753 251.88 25.9594Z" fill="white" stroke="#316376" stroke-width="4.5997"/>
<path d="M208.52 137.276C218.87 126.927 225.386 116.961 273.683 99.712L296.681 101.245V212.788H252.984C243.216 187.303 235.512 173.11 252.984 146.476L234.968 150.692C241.523 157.265 220.259 170.485 218.869 182.507C231.596 180.052 236.188 189.406 236.188 191.706L240.335 212.788C240.335 212.788 220.787 220.071 208.52 212.788C196.254 205.505 185.927 188.522 187.821 174.457C191 162.628 198.171 147.626 208.52 137.276Z" fill="#0F3057"/>
<path d="M384.842 136.893C374.492 126.544 367.976 116.578 319.679 99.3287L296.681 100.862V212.405H340.378C350.146 186.92 357.85 172.727 340.378 146.092L358.393 150.309C350.108 155.901 371.078 168.598 374.493 182.123C361.766 179.669 357.174 189.023 357.174 191.323L353.027 212.405C353.027 212.405 372.575 219.687 384.841 212.405C397.108 205.122 407.435 188.138 405.54 174.074C402.361 162.244 395.191 147.242 384.842 136.893Z" fill="#0F3057"/>
<ellipse cx="295.531" cy="109.295" rx="23.3818" ry="22.2319" fill="white"/>
<ellipse cx="295.914" cy="101.245" rx="20.6986" ry="21.8486" fill="#C59074"/>
<ellipse rx="4.5997" ry="6.51624" transform="matrix(-1 0 0 1 256.817 58.3148)" fill="#E4AE92"/>
<path d="M258.35 62.5313L257.967 55.0663C256.367 53.2173 254.9 53.8876 254.517 58.2094C254.9 60.9597 256.357 62.0928 258.35 62.5313Z" fill="#C49074" stroke="#C49074" stroke-width="0.766616"/>
<ellipse cx="329.645" cy="59.848" rx="4.5997" ry="6.51624" fill="#E4AE92"/>
<path d="M328.112 64.0645L328.495 56.5995C330.095 54.7505 331.562 55.4208 331.945 59.7427C331.562 62.4929 330.105 63.626 328.112 64.0645Z" fill="#C49074" stroke="#C49074" stroke-width="0.766616"/>
<path d="M327.345 80.93C327.345 80.93 331.061 36.5377 326.977 28.0484C313.681 0.414164 272.465 -0.347492 259.225 28.0484C255.147 36.7952 259.445 74.6974 260.092 80.1624C260.146 80.616 260.241 81.0504 260.382 81.485C272.817 119.909 316.623 121.492 327.345 80.93Z" fill="#E4AE92"/>
<path d="M286.238 45.509C285.855 46.2756 267.839 47.4255 267.073 47.0422C266.306 46.6589 264.833 43.5925 265.217 43.5925C265.6 43.5925 282.849 40.526 284.765 40.526C286.682 40.526 286.621 44.7424 286.238 45.509Z" fill="black" stroke="black" stroke-width="0.766616"/>
<ellipse cx="277.803" cy="55.4749" rx="4.21639" ry="4.983" fill="black"/>
<circle cx="278.57" cy="53.1752" r="1.14992" fill="white"/>
<ellipse cx="309.234" cy="55.4749" rx="4.21639" ry="4.983" fill="black"/>
<circle cx="310.001" cy="53.1752" r="1.14992" fill="white"/>
<path d="M300.633 45.509C301.016 46.2756 319.032 47.4255 319.798 47.0422C320.565 46.6589 322.038 43.5925 321.654 43.5925C321.271 43.5925 304.022 40.526 302.106 40.526C300.189 40.526 300.25 44.7424 300.633 45.509Z" fill="black" stroke="black" stroke-width="0.766616"/>
<path d="M259.225 36.7395C259.434 43.7062 258.406 49.55 258.075 55.9049L257.308 54.3717C255.411 36.8486 259.404 21.0239 262.471 16.8075C265.537 12.5911 276.857 7.60813 276.857 7.60813L291.039 6.84151C300.426 6.62662 304.806 7.09462 310.205 9.52467C315.373 8.76643 318.761 13.7067 323.8 20.2107C327.274 23.5879 331.205 37.3807 328.987 54.3717L328.603 55.9049C328.391 49.6388 327.117 44.6089 327.454 36.7395C323.944 27.4103 316.72 20.0557 317.284 15.611C303.884 11.2607 296.678 7.70108 268.987 12.9279C269.002 17.5298 261.868 26.9212 259.225 36.7395Z" fill="#B77A63"/>
<path d="M278.953 16.7609C283.429 18.1418 286.159 20.9698 291.662 22.6842C292.106 22.8226 292.589 22.7362 292.968 22.4658C298.736 18.3472 300.356 17.3257 303.058 17.4925C303.337 17.5097 303.619 17.4631 303.873 17.3442C308.846 15.0077 311.496 14.3266 315.367 15.2276C315.765 18.3329 317.72 18.981 320.472 20.4529C320.645 20.5454 320.835 20.6064 321.03 20.627C324.33 20.976 324.959 20.3747 325.257 19.064C325.314 18.8122 325.29 18.5476 325.204 18.3044C323.55 13.6647 321.448 12.1537 317.667 8.71141C311.41 4.87602 300.726 -0.710045 297.352 1.04525C298.038 2.43026 291.986 -2.02118 291.986 2.57852C289.012 1.34887 282.82 -0.475379 279.163 1.04526C280.158 3.32373 277.777 2.79605 276.653 3.72841C271.531 2.95286 268.793 2.94764 267.215 3.99646C266.599 4.40536 266.685 5.2572 267.16 5.82325C268.372 7.26782 267.824 7.35893 267.07 7.9448L262.088 9.47804C258.908 10.4617 259.458 11.0142 262.471 15.2276C263.429 16.4969 263.05 17.2737 266.304 17.5275C270.717 18.7233 274.121 18.3293 278.953 16.7609Z" fill="#23130C" stroke="#23130C" stroke-width="0.766616"/>
<path d="M300.418 74.2571C295.767 75.4293 292.803 75.4516 288.153 74.2571C289.346 76.1092 290.853 76.867 294.286 77.3235C298.178 76.8974 299.167 76.0439 300.418 74.2571Z" fill="#B77A63"/>
<path d="M282.786 83.0731C292.159 88.0264 297.377 87.942 306.168 83.0731C307.271 100.55 284.589 99.8584 282.786 83.0731Z" fill="white"/>
<path d="M284.703 89.5895C292.007 91.7561 300.961 90.8864 304.251 89.2062" stroke="#AEAEAE" stroke-width="0.766616"/>
<path d="M299.652 99.172H292.369C294.247 101.89 292.88 104.538 292.369 105.305C290.069 108.755 282.786 106.072 276.653 104.538C278.187 106.072 285.031 111.289 292.369 113.354C295.961 114.014 297.592 113.912 299.652 113.354C306.287 110.872 312.301 106.455 314.218 103.388C306.551 106.838 301.664 107.988 299.652 105.305C298.502 103.772 298.146 102.295 299.652 99.172Z" fill="#23130C" stroke="#23130C" stroke-width="0.766616"/>
<rect x="228.452" y="136.126" width="133.391" height="76.6616" rx="3.83308" fill="#606860"/>
<path d="M228.452 146.026C228.452 143.909 230.168 142.193 232.285 142.193H358.01C360.127 142.193 361.843 143.909 361.843 146.026V208.955C361.843 211.072 360.127 212.788 358.01 212.788H232.285C230.168 212.788 228.452 211.072 228.452 208.955V146.026Z" fill="#858585"/>
<g clip-path="url(#clip2)">
<path d="M234.378 192.397L233.757 192.645L234.286 193.055L249.972 205.218L250.494 205.622L250.587 204.969L253.383 185.344L253.477 184.683L252.858 184.935L245.713 187.847L245.511 187.929L245.479 188.145L244.919 191.871L241.964 189.567L241.791 189.431L241.586 189.513L234.378 192.397ZM245.628 192.756L246.33 188.53L248.784 187.518L247.295 197.709L239.14 191.412L241.615 190.434L245.019 192.999L245.525 193.38L245.628 192.756ZM235.458 192.895L238.208 191.788L247.437 198.948L247.957 199.352L248.051 198.7L249.725 187.137L252.418 186.047L249.826 203.979L235.458 192.895Z" stroke="white" stroke-width="0.766616"/>
<path d="M238.301 191.303L241.623 189.963L245.249 192.691L245.958 188.214L249.276 186.873L247.638 198.56L238.301 191.303Z" fill="#35495E"/>
<path d="M234.689 192.791L238.299 191.305L247.635 198.561L249.273 186.875L252.9 185.414L250.109 204.688L234.689 192.791Z" fill="#41B883"/>
</g>
<g clip-path="url(#clip3)">
<path fill-rule="evenodd" clip-rule="evenodd" d="M342.636 198.3C342.672 198.929 343.3 198.641 343.588 198.444C343.857 198.246 343.947 198.408 343.965 198.031C343.983 197.779 344.001 197.545 344.001 197.294C343.588 197.258 343.139 197.348 342.797 197.599C342.636 197.725 342.294 198.138 342.636 198.3Z" fill="#F6D2A2"/>
<path d="M342.977 198.749C342.851 198.749 342.617 198.695 342.581 198.336C342.474 198.264 342.438 198.174 342.438 198.12C342.42 197.905 342.653 197.653 342.779 197.563C343.067 197.348 343.444 197.24 343.839 197.24H344.073V197.294C344.091 197.491 344.073 197.689 344.055 197.869C344.055 197.923 344.055 197.977 344.037 198.03C344.019 198.3 343.965 198.336 343.839 198.39C343.785 198.408 343.731 198.426 343.642 198.498C343.552 198.552 343.246 198.749 342.977 198.749ZM343.839 197.348C343.462 197.348 343.121 197.455 342.851 197.653C342.725 197.743 342.546 197.959 342.564 198.102C342.564 198.156 342.599 198.21 342.671 198.246L342.707 198.264V198.3C342.725 198.587 342.869 198.623 342.977 198.623C343.156 198.623 343.408 198.498 343.57 198.39C343.678 198.318 343.749 198.3 343.803 198.282C343.893 198.246 343.911 198.246 343.929 198.03C343.929 197.977 343.929 197.923 343.947 197.869C343.965 197.707 343.965 197.527 343.965 197.366C343.911 197.348 343.875 197.348 343.839 197.348Z" fill="black"/>
<path fill-rule="evenodd" clip-rule="evenodd" d="M342.635 198.3C342.725 198.264 342.833 198.246 342.887 198.156L342.635 198.3Z" fill="#C6B198"/>
<path d="M342.636 198.354C342.618 198.354 342.582 198.336 342.582 198.318C342.564 198.282 342.582 198.246 342.618 198.246C342.636 198.246 342.654 198.228 342.654 198.228C342.725 198.192 342.797 198.174 342.833 198.12C342.851 198.102 342.887 198.084 342.923 198.102C342.941 198.12 342.959 198.156 342.941 198.192C342.869 198.282 342.779 198.318 342.708 198.336L342.672 198.354H342.636Z" fill="black"/>
<path fill-rule="evenodd" clip-rule="evenodd" d="M344.109 190.7C341.665 190.017 343.48 186.909 345.438 188.184L344.109 190.7Z" fill="#6AD7E5"/>
<path d="M344.145 190.772L344.091 190.754C342.833 190.394 342.851 189.496 342.887 189.226C342.977 188.544 343.624 187.825 344.486 187.825C344.828 187.825 345.151 187.933 345.475 188.148L345.528 188.184L344.145 190.772ZM344.486 187.951C343.678 187.951 343.085 188.616 342.995 189.244C342.905 189.891 343.3 190.394 344.073 190.628L345.349 188.202C345.079 188.041 344.792 187.951 344.486 187.951Z" fill="black"/>
<path fill-rule="evenodd" clip-rule="evenodd" d="M354.943 187.951C356.866 186.603 358.627 189.658 356.381 190.43L354.943 187.951Z" fill="#6AD7E5"/>
<path d="M356.363 190.502L354.872 187.933L354.925 187.897C355.267 187.663 355.608 187.537 355.95 187.537C356.776 187.537 357.369 188.22 357.495 188.885C357.549 189.154 357.603 190.071 356.417 190.466L356.363 190.502ZM355.033 187.987L356.417 190.376C357.118 190.125 357.477 189.586 357.369 188.939C357.261 188.328 356.704 187.699 355.95 187.699C355.644 187.681 355.339 187.771 355.033 187.987Z" fill="black"/>
<path fill-rule="evenodd" clip-rule="evenodd" d="M355.374 206.134C355.86 206.439 356.758 207.356 356.021 207.805C355.321 208.452 354.925 207.086 354.296 206.906C354.566 206.547 354.907 206.206 355.374 206.134Z" fill="#F6D2A2"/>
<path d="M355.644 208.038C355.357 208.038 355.105 207.751 354.889 207.481C354.692 207.266 354.494 207.032 354.279 206.96L354.189 206.942L354.243 206.871C354.458 206.565 354.818 206.17 355.357 206.08H355.375L355.393 206.098C355.698 206.296 356.363 206.853 356.345 207.374C356.345 207.571 356.237 207.733 356.039 207.859C355.914 207.985 355.788 208.038 355.644 208.038ZM354.386 206.871C354.602 206.96 354.782 207.194 354.961 207.392C355.177 207.661 355.393 207.895 355.626 207.895C355.734 207.895 355.842 207.841 355.95 207.733H355.968C356.129 207.625 356.219 207.499 356.219 207.338C356.219 206.924 355.698 206.403 355.339 206.17C355.015 206.26 354.692 206.475 354.386 206.871ZM356.021 207.859C356.003 207.859 355.985 207.841 355.968 207.823C355.932 207.751 355.896 207.661 355.878 207.589C355.824 207.445 355.77 207.302 355.662 207.194C355.644 207.176 355.644 207.14 355.662 207.104C355.68 207.086 355.716 207.086 355.752 207.104C355.878 207.23 355.95 207.392 356.003 207.553L356.093 207.769C356.111 207.805 356.093 207.841 356.075 207.859H356.021Z" fill="black"/>
<path fill-rule="evenodd" clip-rule="evenodd" d="M346.607 207.176C346.032 207.266 345.708 207.787 345.223 208.056C344.774 208.326 344.594 207.966 344.558 207.895C344.486 207.859 344.486 207.931 344.379 207.823C343.965 207.158 344.81 206.673 345.259 206.349C345.888 206.206 346.283 206.745 346.607 207.176Z" fill="#F6D2A2"/>
<path d="M344.918 208.2C344.684 208.2 344.558 208.002 344.522 207.931H344.504C344.45 207.931 344.415 207.913 344.343 207.841V207.823C343.947 207.194 344.63 206.709 345.079 206.385L345.241 206.278H345.277C345.349 206.26 345.403 206.26 345.475 206.26C346.014 206.26 346.355 206.727 346.643 207.104L346.732 207.23L346.625 207.248C346.283 207.302 346.032 207.517 345.78 207.733C345.618 207.877 345.457 208.002 345.277 208.11C345.133 208.164 345.025 208.2 344.918 208.2ZM344.522 207.823C344.54 207.823 344.558 207.823 344.594 207.841H344.612L344.63 207.859C344.666 207.913 344.756 208.074 344.936 208.074C345.025 208.074 345.115 208.038 345.205 207.985C345.385 207.895 345.546 207.751 345.69 207.625C345.924 207.428 346.175 207.212 346.499 207.122C346.229 206.763 345.906 206.367 345.457 206.367C345.403 206.367 345.349 206.367 345.295 206.385L345.151 206.493C344.684 206.817 344.109 207.23 344.45 207.769C344.468 207.805 344.486 207.823 344.522 207.823ZM344.558 207.949C344.522 207.949 344.486 207.913 344.504 207.877C344.522 207.697 344.612 207.571 344.702 207.428C344.756 207.356 344.792 207.284 344.828 207.212C344.846 207.176 344.882 207.176 344.9 207.176C344.936 207.194 344.936 207.23 344.936 207.248C344.9 207.338 344.846 207.41 344.792 207.481C344.702 207.607 344.63 207.715 344.612 207.859C344.612 207.931 344.594 207.949 344.558 207.949Z" fill="black"/>
<path fill-rule="evenodd" clip-rule="evenodd" d="M344.217 189.855C343.893 189.694 343.66 189.46 343.857 189.083C344.037 188.741 344.378 188.777 344.702 188.939L344.217 189.855ZM355.878 189.532C356.201 189.37 356.435 189.137 356.237 188.759C356.057 188.418 355.716 188.454 355.393 188.616L355.878 189.532Z" fill="black"/>
<path fill-rule="evenodd" clip-rule="evenodd" d="M358.087 198.21C358.052 198.839 357.423 198.552 357.135 198.354C356.866 198.156 356.776 198.318 356.758 197.941C356.74 197.689 356.722 197.456 356.722 197.204C357.135 197.168 357.584 197.258 357.926 197.509C358.105 197.653 358.429 198.048 358.087 198.21Z" fill="#F6D2A2"/>
<path d="M357.764 198.659C357.495 198.659 357.189 198.462 357.099 198.408C357.009 198.354 356.956 198.318 356.902 198.3C356.758 198.246 356.722 198.21 356.704 197.941C356.704 197.887 356.704 197.833 356.686 197.779C356.668 197.599 356.65 197.402 356.668 197.204V197.15H356.902C357.297 197.15 357.674 197.258 357.962 197.473C358.088 197.563 358.321 197.815 358.303 198.03C358.303 198.102 358.267 198.192 358.159 198.246C358.123 198.605 357.89 198.659 357.764 198.659ZM356.776 197.276C356.776 197.438 356.776 197.617 356.794 197.779C356.794 197.833 356.794 197.887 356.812 197.941C356.83 198.156 356.848 198.156 356.938 198.192C356.992 198.21 357.063 198.246 357.171 198.3C357.333 198.408 357.584 198.534 357.764 198.534C357.872 198.534 358.016 198.498 358.034 198.21V198.174L358.07 198.156C358.141 198.12 358.177 198.084 358.177 198.012C358.195 197.869 358.016 197.653 357.89 197.563C357.62 197.366 357.261 197.258 356.902 197.258C356.866 197.276 356.83 197.276 356.776 197.276Z" fill="black"/>
<path fill-rule="evenodd" clip-rule="evenodd" d="M358.088 198.21C357.998 198.174 357.89 198.156 357.836 198.066L358.088 198.21Z" fill="#C6B198"/>
<path d="M358.088 198.282H358.07L358.034 198.264C357.944 198.228 357.854 198.21 357.8 198.12C357.782 198.102 357.782 198.049 357.818 198.031C357.836 198.013 357.89 198.013 357.908 198.049C357.944 198.102 358.016 198.12 358.088 198.156C358.106 198.156 358.124 198.174 358.124 198.174C358.159 198.192 358.177 198.228 358.159 198.246C358.142 198.264 358.106 198.282 358.088 198.282Z" fill="black"/>
<path fill-rule="evenodd" clip-rule="evenodd" d="M350.128 186.675C352.572 186.675 354.854 187.016 356.057 189.37C357.135 191.993 356.74 194.832 356.92 197.617C357.064 200.007 357.369 202.756 356.273 204.966C355.105 207.284 352.194 207.877 349.805 207.787C347.918 207.715 345.654 207.104 344.576 205.379C343.336 203.367 343.911 200.366 344.001 198.12C344.109 195.461 343.282 192.784 344.163 190.197C345.043 187.484 347.487 186.873 350.128 186.675Z" fill="#6AD7E5"/>
<path d="M350.218 207.859H349.769C349.032 207.841 347.918 207.715 346.822 207.266C345.762 206.835 344.989 206.224 344.486 205.415C343.48 203.78 343.66 201.534 343.821 199.54C343.857 199.037 343.893 198.57 343.911 198.12C343.947 197.186 343.875 196.216 343.785 195.299C343.642 193.611 343.498 191.868 344.055 190.179C344.486 188.921 345.259 188.023 346.427 187.448C347.343 186.998 348.475 186.747 350.092 186.621C352.5 186.603 354.889 186.945 356.093 189.334C356.884 191.257 356.884 193.323 356.902 195.317C356.902 196.072 356.902 196.845 356.956 197.599C356.974 197.833 356.992 198.066 356.992 198.3C357.135 200.492 357.297 202.972 356.291 204.984C355.788 206.008 354.907 206.763 353.704 207.248C352.733 207.643 351.512 207.859 350.218 207.859ZM350.128 186.729C347.595 186.927 345.115 187.484 344.199 190.215C343.642 191.886 343.785 193.611 343.929 195.281C344.001 196.216 344.091 197.168 344.055 198.12C344.037 198.57 344.001 199.037 343.965 199.54C343.803 201.516 343.624 203.744 344.612 205.343C345.025 206.008 346.355 207.589 349.787 207.715H350.236C354.207 207.715 355.68 205.954 356.219 204.912C357.207 202.936 357.046 200.456 356.92 198.282C356.902 198.049 356.884 197.815 356.884 197.581C356.848 196.827 356.83 196.054 356.83 195.299C356.812 193.323 356.812 191.257 356.039 189.352C355.5 188.292 354.692 187.573 353.578 187.16C352.428 186.783 351.134 186.729 350.128 186.729Z" fill="black"/>
<path fill-rule="evenodd" clip-rule="evenodd" d="M350.559 189.945C350.991 192.496 355.159 191.814 354.566 189.244C354.027 186.944 350.416 187.591 350.559 189.945Z" fill="white"/>
<path d="M352.536 191.616C351.727 191.616 350.703 191.185 350.487 189.963C350.451 189.388 350.631 188.867 351.008 188.472C351.422 188.023 352.051 187.771 352.697 187.771C353.452 187.771 354.35 188.166 354.602 189.262C354.746 189.873 354.638 190.412 354.297 190.843C353.919 191.311 353.254 191.616 352.536 191.616ZM350.613 189.945C350.703 190.448 350.937 190.843 351.314 191.131C351.637 191.382 352.087 191.508 352.536 191.508C353.201 191.508 353.847 191.221 354.207 190.772C354.53 190.376 354.62 189.855 354.494 189.28C354.261 188.256 353.416 187.897 352.697 187.897C352.087 187.897 351.494 188.148 351.098 188.562C350.757 188.921 350.577 189.406 350.613 189.945Z" fill="black"/>
<path fill-rule="evenodd" clip-rule="evenodd" d="M345.582 190.358C346.157 192.568 349.697 192.011 349.571 189.783C349.409 187.124 345.025 187.627 345.582 190.358Z" fill="white"/>
<path d="M347.469 191.832C346.696 191.832 345.798 191.454 345.51 190.376C345.385 189.748 345.51 189.173 345.87 188.741C346.265 188.256 346.912 187.969 347.613 187.969C348.547 187.969 349.535 188.526 349.607 189.783C349.643 190.305 349.481 190.772 349.122 191.149C348.745 191.562 348.116 191.832 347.469 191.832ZM347.613 188.095C346.948 188.095 346.337 188.364 345.96 188.813C345.618 189.226 345.51 189.748 345.636 190.34C345.888 191.347 346.75 191.706 347.469 191.706C348.08 191.706 348.673 191.472 349.05 191.059C349.373 190.718 349.535 190.269 349.499 189.783C349.463 189.011 348.942 188.095 347.613 188.095Z" fill="black"/>
<path fill-rule="evenodd" clip-rule="evenodd" d="M351.062 193C351.062 193.323 351.134 193.7 351.08 194.06C350.99 194.221 350.829 194.239 350.685 194.293C350.487 194.257 350.326 194.132 350.236 193.952C350.182 193.557 350.254 193.161 350.272 192.766L351.062 193Z" fill="white"/>
<path d="M350.685 194.365C350.452 194.329 350.272 194.186 350.182 193.988C350.146 193.7 350.164 193.431 350.182 193.161C350.2 193.036 350.2 192.91 350.2 192.784V192.712L351.116 193V193.036C351.116 193.143 351.134 193.251 351.134 193.377C351.152 193.611 351.17 193.862 351.134 194.096V194.114C351.063 194.257 350.937 194.293 350.811 194.347C350.775 194.329 350.739 194.347 350.685 194.365ZM350.29 193.934C350.362 194.096 350.506 194.203 350.667 194.239C350.703 194.221 350.739 194.221 350.757 194.203C350.865 194.168 350.955 194.132 351.009 194.042C351.045 193.826 351.027 193.593 351.009 193.359C351.009 193.251 350.991 193.143 350.991 193.054L350.308 192.838C350.308 192.946 350.29 193.054 350.29 193.143C350.272 193.431 350.254 193.682 350.29 193.934Z" fill="black"/>
<path fill-rule="evenodd" clip-rule="evenodd" d="M347.163 189.999C347.163 190.358 346.894 190.646 346.57 190.646C346.247 190.646 345.978 190.358 345.978 189.999C345.978 189.64 346.247 189.352 346.57 189.352C346.894 189.352 347.163 189.64 347.163 189.999Z" fill="black"/>
<path fill-rule="evenodd" clip-rule="evenodd" d="M346.966 190.143C346.966 190.233 346.894 190.304 346.822 190.304C346.75 190.304 346.678 190.233 346.678 190.143C346.678 190.053 346.75 189.981 346.822 189.981C346.912 189.981 346.966 190.053 346.966 190.143Z" fill="white"/>
<path fill-rule="evenodd" clip-rule="evenodd" d="M352.176 189.837C352.176 190.197 351.907 190.484 351.583 190.484C351.26 190.484 350.99 190.197 350.99 189.837C350.99 189.478 351.26 189.191 351.583 189.191C351.907 189.191 352.176 189.478 352.176 189.837Z" fill="black"/>
<path fill-rule="evenodd" clip-rule="evenodd" d="M351.997 189.981C351.997 190.071 351.943 190.143 351.853 190.143C351.781 190.143 351.709 190.071 351.709 189.981C351.709 189.891 351.763 189.819 351.853 189.819C351.925 189.819 351.997 189.891 351.997 189.981Z" fill="white"/>
<path fill-rule="evenodd" clip-rule="evenodd" d="M349.338 192.964C349.068 193.593 349.481 194.868 350.2 193.934C350.146 193.539 350.218 193.143 350.236 192.748L349.338 192.964Z" fill="white"/>
<path d="M349.715 194.329C349.589 194.329 349.463 194.257 349.374 194.114C349.176 193.826 349.14 193.287 349.284 192.946L349.302 192.91L350.29 192.658V192.73L350.272 193.125C350.254 193.395 350.236 193.646 350.272 193.916V193.934L350.254 193.952C350.074 194.203 349.895 194.329 349.715 194.329ZM349.392 193.018C349.284 193.323 349.32 193.808 349.481 194.042C349.553 194.15 349.625 194.203 349.715 194.203C349.841 194.203 349.984 194.096 350.128 193.916C350.092 193.646 350.11 193.377 350.146 193.125L350.164 192.82L349.392 193.018Z" fill="black"/>
<path fill-rule="evenodd" clip-rule="evenodd" d="M349.427 191.742C348.942 191.778 348.547 192.371 348.799 192.82C349.14 193.431 349.877 192.766 350.344 192.82C350.883 192.838 351.314 193.395 351.745 192.928C352.23 192.407 351.53 191.904 351.009 191.67L349.427 191.742Z" fill="#F6D2A2"/>
<path d="M351.368 193.179C351.206 193.179 351.045 193.107 350.883 193.036C350.721 192.964 350.542 192.892 350.344 192.892H350.29C350.146 192.892 349.985 192.946 349.805 193.018C349.607 193.089 349.41 193.143 349.23 193.143C349.014 193.143 348.853 193.053 348.745 192.856C348.619 192.64 348.637 192.389 348.763 192.155C348.906 191.886 349.158 191.724 349.428 191.688L351.027 191.616H351.045C351.44 191.778 351.889 192.083 351.979 192.443C352.015 192.622 351.961 192.802 351.817 192.964C351.673 193.125 351.53 193.179 351.368 193.179ZM350.362 192.784C350.559 192.784 350.757 192.874 350.937 192.946C351.099 193.018 351.242 193.071 351.386 193.071C351.512 193.071 351.62 193.018 351.727 192.91C351.853 192.784 351.889 192.64 351.871 192.496C351.799 192.191 351.368 191.904 351.027 191.76L349.463 191.832C349.23 191.85 349.014 192.011 348.889 192.227C348.781 192.425 348.781 192.64 348.871 192.82C348.96 192.982 349.068 193.053 349.248 193.053C349.41 193.053 349.589 192.982 349.769 192.928C349.967 192.856 350.128 192.802 350.308 192.802C350.308 192.766 350.326 192.766 350.362 192.784Z" fill="#231F20"/>
<path fill-rule="evenodd" clip-rule="evenodd" d="M349.373 191.724C349.337 190.879 350.955 190.772 351.134 191.472C351.332 192.191 349.445 192.353 349.373 191.724Z" fill="black"/>
</g>
<g clip-path="url(#clip4)">
<path d="M359.773 156.422L357.813 148.312C357.785 148.173 357.693 148.033 357.57 147.903C357.446 147.772 357.3 147.684 357.174 147.638L349.196 145.302C348.912 145.22 348.517 145.348 348.311 145.544L342.262 151.285C342.143 151.399 342.022 151.555 341.985 151.755L359.727 156.961C359.796 156.772 359.801 156.582 359.773 156.422Z" fill="#9B4F96"/>
<path d="M341.965 151.712C341.93 151.849 341.926 151.997 341.955 152.114L343.894 160.224C343.922 160.363 344.014 160.503 344.137 160.633C344.261 160.763 344.407 160.852 344.533 160.898L352.511 163.234C352.795 163.315 353.19 163.188 353.396 162.992L359.445 157.25C359.542 157.158 359.641 157.044 359.687 156.897L341.965 151.712Z" fill="#68217A"/>
<path d="M351.74 157.834C350.504 158.14 349.136 157.787 348.198 156.799C346.806 155.333 346.867 153.004 348.333 151.613C349.799 150.221 352.127 150.282 353.519 151.748C354.457 152.736 354.739 154.12 354.357 155.349L356.512 155.988C357.103 154.023 356.663 151.798 355.148 150.201C352.901 147.834 349.154 147.737 346.787 149.984C344.419 152.231 344.322 155.978 346.569 158.345C348.074 159.931 350.262 160.496 352.245 160.018L351.74 157.834ZM354.022 158.084L354.581 157.738L354.148 157.282L354.659 156.798L355.184 157.351L355.981 156.843L356.486 157.375L355.7 157.873L356.092 158.286L356.878 157.787L357.373 158.309L356.587 158.807L356.834 159.068L356.324 159.552L355.984 159.194L355.424 159.539L355.857 159.995L355.347 160.48L354.821 159.926L354.046 160.414L353.54 159.882L354.316 159.394L353.924 158.981L353.149 159.47L352.654 158.948L353.429 158.46L353.182 158.199L353.692 157.715L354.032 158.073L354.022 158.084ZM354.516 158.605L354.908 159.018L355.468 158.672L355.076 158.259L354.516 158.605Z" fill="white"/>
</g>
<g clip-path="url(#clip5)">
<path d="M282.195 174.219C282.195 176.233 284.161 178.113 287.262 179.173C286.643 182.29 287.151 184.802 288.848 185.781C290.593 186.787 293.192 186.09 295.659 183.934C298.063 186.003 300.494 186.818 302.189 185.836C303.932 184.827 304.463 182.145 303.826 178.931C307.055 177.863 308.862 176.26 308.862 174.219C308.862 172.252 306.892 170.55 303.833 169.497C304.518 166.15 303.938 163.699 302.17 162.68C300.466 161.697 298.007 162.554 295.567 164.677C293.029 162.423 290.595 161.735 288.829 162.757C287.126 163.743 286.641 166.301 287.262 169.475C284.266 170.52 282.195 172.26 282.195 174.219Z" fill="white"/>
<path d="M303.185 170.542C302.939 170.457 302.684 170.377 302.422 170.302C302.465 170.126 302.505 169.952 302.54 169.782C303.117 166.98 302.74 164.724 301.451 163.981C300.216 163.268 298.195 164.011 296.155 165.787C295.958 165.958 295.762 166.138 295.565 166.328C295.434 166.203 295.303 166.081 295.173 165.965C293.034 164.067 290.89 163.266 289.603 164.012C288.369 164.726 288.003 166.848 288.523 169.502C288.573 169.759 288.631 170.021 288.698 170.287C288.394 170.373 288.102 170.465 287.821 170.563C285.314 171.437 283.713 172.807 283.713 174.228C283.713 175.696 285.432 177.168 288.043 178.06C288.249 178.131 288.463 178.197 288.684 178.261C288.612 178.549 288.55 178.831 288.498 179.106C288.002 181.715 288.389 183.786 289.62 184.496C290.892 185.229 293.026 184.476 295.103 182.659C295.268 182.516 295.433 182.364 295.598 182.204C295.812 182.41 296.025 182.605 296.238 182.788C298.251 184.52 300.239 185.219 301.468 184.507C302.739 183.772 303.151 181.547 302.616 178.84C302.575 178.633 302.527 178.422 302.473 178.207C302.623 178.162 302.77 178.116 302.914 178.069C305.629 177.169 307.395 175.715 307.395 174.228C307.395 172.802 305.742 171.422 303.185 170.542Z" fill="#53C1DE"/>
<path d="M302.596 177.109C302.466 177.151 302.333 177.193 302.198 177.233C301.898 176.284 301.494 175.275 300.999 174.233C301.471 173.215 301.86 172.219 302.151 171.276C302.394 171.347 302.629 171.42 302.855 171.498C305.047 172.253 306.384 173.368 306.384 174.228C306.384 175.143 304.94 176.332 302.596 177.109ZM301.623 179.036C301.86 180.233 301.894 181.316 301.737 182.162C301.596 182.922 301.312 183.429 300.961 183.632C300.215 184.064 298.619 183.502 296.898 182.021C296.7 181.851 296.502 181.67 296.302 181.478C296.97 180.748 297.637 179.9 298.287 178.958C299.432 178.856 300.514 178.69 301.495 178.463C301.543 178.658 301.586 178.849 301.623 179.036ZM291.787 183.557C291.057 183.815 290.477 183.822 290.126 183.62C289.379 183.189 289.068 181.526 289.492 179.295C289.54 179.039 289.598 178.777 289.664 178.508C290.635 178.723 291.708 178.877 292.856 178.97C293.511 179.892 294.197 180.74 294.889 181.482C294.738 181.628 294.587 181.767 294.438 181.898C293.519 182.701 292.598 183.271 291.787 183.557ZM288.37 177.103C287.216 176.708 286.262 176.195 285.608 175.636C285.021 175.133 284.724 174.633 284.724 174.228C284.724 173.366 286.01 172.266 288.154 171.518C288.415 171.427 288.687 171.342 288.97 171.261C289.266 172.225 289.655 173.233 290.124 174.252C289.649 175.287 289.254 176.311 288.955 177.286C288.754 177.228 288.558 177.167 288.37 177.103ZM289.516 169.308C289.071 167.034 289.366 165.318 290.11 164.887C290.902 164.428 292.654 165.082 294.501 166.722C294.619 166.827 294.737 166.937 294.856 167.05C294.168 167.789 293.488 168.63 292.839 169.547C291.725 169.65 290.659 169.816 289.678 170.038C289.617 169.79 289.562 169.546 289.516 169.308ZM299.731 171.831C299.497 171.426 299.256 171.031 299.011 170.646C299.767 170.742 300.491 170.869 301.171 171.024C300.966 171.678 300.712 172.362 300.413 173.063C300.198 172.655 299.971 172.244 299.731 171.831ZM295.565 167.773C296.032 168.279 296.499 168.843 296.959 169.455C296.496 169.434 296.027 169.422 295.554 169.422C295.086 169.422 294.62 169.433 294.16 169.455C294.62 168.848 295.091 168.284 295.565 167.773ZM291.373 171.838C291.139 172.244 290.916 172.653 290.704 173.062C290.41 172.364 290.158 171.676 289.952 171.013C290.627 170.862 291.348 170.738 292.099 170.645C291.85 171.032 291.607 171.431 291.373 171.838V171.838ZM292.12 177.883C291.345 177.797 290.613 177.68 289.938 177.533C290.147 176.857 290.404 176.156 290.705 175.442C290.917 175.851 291.141 176.26 291.377 176.667H291.377C291.617 177.082 291.865 177.488 292.12 177.883ZM295.593 180.754C295.114 180.237 294.636 179.664 294.168 179.049C294.622 179.067 295.084 179.076 295.554 179.076C296.037 179.076 296.514 179.065 296.984 179.044C296.522 179.671 296.057 180.244 295.593 180.754ZM300.422 175.405C300.739 176.127 301.006 176.825 301.217 177.489C300.531 177.645 299.789 177.772 299.008 177.865C299.254 177.476 299.497 177.074 299.735 176.66C299.977 176.242 300.206 175.823 300.422 175.405ZM298.859 176.155C298.489 176.797 298.109 177.409 297.723 177.988C297.02 178.038 296.294 178.064 295.554 178.064C294.817 178.064 294.1 178.041 293.41 177.996C293.008 177.41 292.62 176.796 292.252 176.16H292.252C291.885 175.527 291.548 174.888 291.242 174.252C291.548 173.615 291.884 172.975 292.249 172.343L292.249 172.343C292.615 171.709 293 171.097 293.398 170.515C294.102 170.462 294.824 170.434 295.554 170.434H295.554C296.287 170.434 297.01 170.462 297.715 170.516C298.106 171.094 298.488 171.703 298.856 172.338C299.227 172.979 299.568 173.615 299.877 174.238C299.569 174.872 299.229 175.514 298.859 176.155ZM300.946 164.857C301.739 165.314 302.047 167.159 301.549 169.577C301.517 169.732 301.482 169.889 301.443 170.048C300.46 169.822 299.393 169.653 298.276 169.548C297.625 168.621 296.951 167.779 296.274 167.05C296.456 166.874 296.638 166.708 296.819 166.55C298.567 165.028 300.201 164.428 300.946 164.857Z" fill="white"/>
<path d="M295.554 172.113C296.722 172.113 297.669 173.06 297.669 174.228C297.669 175.396 296.722 176.343 295.554 176.343C294.386 176.343 293.439 175.396 293.439 174.228C293.439 173.06 294.386 172.113 295.554 172.113Z" fill="#53C1DE"/>
</g>
<g clip-path="url(#clip6)">
<path d="M241.464 146.124L234.379 148.003C233.935 148.125 233.567 148.493 233.443 148.939L231.516 156.071C231.392 156.531 231.501 157.053 231.838 157.39L237.037 162.588C237.374 162.925 237.901 163.029 238.362 162.906L240.238 162.389C241.092 162.099 241.294 161.896 241.554 161.636C242.401 160.789 242.373 159.793 241.48 158.9L236.348 153.768C236.275 153.696 236.13 153.626 236.059 153.697L235.487 154.268C235.415 154.341 235.361 154.61 235.433 154.683L240.565 159.815C240.961 160.211 240.997 160.963 239.993 161.297L238.043 161.821C237.977 161.841 237.899 161.824 237.85 161.775L232.652 156.577C232.603 156.528 232.61 156.422 232.628 156.354L234.545 149.24C234.564 149.174 234.626 149.112 234.692 149.094L241.749 147.231C241.818 147.214 241.85 147.277 241.901 147.328L247.099 152.526C247.148 152.575 247.215 152.605 247.197 152.671L245.316 159.751C245.3 159.813 245.253 159.861 245.187 159.88L243.352 160.343C243.297 160.357 243.249 160.391 243.234 160.443C243.096 160.944 243.061 161.027 242.865 161.431C242.817 161.531 242.753 161.684 243.103 161.586L245.497 160.971C245.724 160.911 245.931 160.79 246.096 160.626C246.262 160.459 246.383 160.252 246.443 160.025L248.304 152.964C248.425 152.502 248.249 152.05 247.912 151.712L242.714 146.514C242.377 146.177 241.924 146.001 241.464 146.124ZM243.115 154.862C241.923 156.054 241.332 155.987 240.652 155.482C240.578 155.429 240.447 155.406 240.382 155.471L239.8 156.054C239.728 156.126 239.757 156.271 239.829 156.343C240.588 157.102 241.92 157.609 243.891 155.638C245.318 154.211 245.582 152.838 244.6 151.857C243.628 150.884 242.715 151.286 241.148 152.487C239.564 153.701 239.329 153.749 239.001 153.422C238.731 153.151 238.491 152.671 239.527 151.635C240.452 150.71 240.992 150.567 241.756 151.05C241.827 151.097 241.922 151.086 241.983 151.025L242.568 150.44C242.604 150.404 242.623 150.355 242.623 150.305C242.62 150.252 242.598 150.205 242.557 150.171C241.393 149.187 240.179 149.4 238.735 150.844C237.451 152.128 237.228 153.436 238.136 154.344C239.122 155.33 240.157 154.84 241.511 153.73C243.13 152.4 243.46 152.501 243.75 152.791C244.253 153.295 244.064 153.913 243.115 154.862Z" fill="#83CD29"/>
</g>
<rect x="9.19922" y="212.788" width="569.596" height="30.6646" rx="15.3323" fill="#5A3002"/>
<path d="M9.19922 228.12C9.19922 219.652 16.0637 212.788 24.5315 212.788H563.463C571.93 212.788 578.795 219.652 578.795 228.12H9.19922Z" fill="#783D13" fill-opacity="0.5"/>
<defs>
<clipPath id="clip0">
<rect width="114.992" height="114.992" fill="white" transform="matrix(-1 0 0 1 114.992 97.7953)"/>
</clipPath>
<clipPath id="clip1">
<rect width="91.9939" height="91.9939" fill="white" transform="translate(451.537 129.227)"/>
</clipPath>
<clipPath id="clip2">
<rect width="19.932" height="19.932" fill="white" transform="translate(234 191.463) rotate(-21.9877)"/>
</clipPath>
<clipPath id="clip3">
<rect width="22.9985" height="22.9985" fill="white" transform="translate(338.844 185.956)"/>
</clipPath>
<clipPath id="clip4">
<rect width="19.1654" height="19.1654" fill="white" transform="translate(351.211 140.726) rotate(46.4905)"/>
</clipPath>
<clipPath id="clip5">
<rect width="26.8316" height="24.1065" fill="white" transform="translate(282.115 162.191)"/>
</clipPath>
<clipPath id="clip6">
<rect width="18.3988" height="18.3988" fill="white" transform="translate(226.918 154.503) rotate(-45)"/>
</clipPath>
</defs>
</svg>