<svg width="571" height="244" viewBox="0 0 571 244" fill="none" xmlns="http://www.w3.org/2000/svg">
<g clip-path="url(#clip0)">
<path d="M81.4381 160.141C76.7244 160.141 72.9033 156.32 72.9033 151.606C72.9033 146.893 76.7244 143.072 81.4381 143.072C86.1517 143.072 89.9729 146.893 89.9729 151.606C89.9729 156.32 86.1517 160.141 81.4381 160.141Z" fill="#F6E266"/>
<path d="M81.4382 143.072C82.1822 143.072 82.9036 143.167 83.5918 143.346C79.9208 144.3 77.2106 147.637 77.2106 151.606C77.2106 155.576 79.921 158.912 83.5918 159.866C82.9039 160.045 82.1822 160.141 81.4382 160.141C76.7246 160.141 72.9033 156.319 72.9033 151.606C72.9033 146.893 76.7246 143.072 81.4382 143.072Z" fill="#FFD064"/>
<path d="M71.8572 193.055H82.1319C83.0002 193.055 83.7041 193.758 83.7041 194.627V202.296H70.285V194.627C70.285 193.758 70.9889 193.055 71.8572 193.055Z" fill="#407093"/>
<path d="M71.8566 193.055H76.7334C75.8656 193.055 75.1621 193.758 75.1621 194.626V202.296H70.2853V194.626C70.2851 193.758 70.9887 193.055 71.8566 193.055Z" fill="#365E7D"/>
<path d="M59.3893 132.909L68.3837 125.666C69.6008 124.686 70.3087 123.208 70.3087 121.645V102.846C70.3087 100.987 71.8162 99.4792 73.6758 99.4792H89.202C91.0617 99.4792 92.5692 100.987 92.5692 102.846V121.645C92.5692 123.207 93.2768 124.686 94.4939 125.666L103.488 132.909C106.64 135.447 108.473 139.277 108.473 143.325V151.225C108.473 152.465 107.468 153.47 106.228 153.47H56.6479C55.4082 153.47 54.4031 152.465 54.4031 151.225V143.325C54.4033 139.277 56.2367 135.447 59.3893 132.909Z" fill="#95D6A4"/>
<path d="M59.3894 132.909L68.3838 125.666C69.6008 124.686 70.3088 123.208 70.3088 121.645V102.846C70.3088 100.987 71.8162 99.4792 73.6759 99.4792H84.4719C82.6123 99.4792 81.1048 100.987 81.1048 102.846V121.645C81.1048 123.208 80.3971 124.686 79.1798 125.666L70.1855 132.909C67.0328 135.447 65.1995 139.277 65.1995 143.325V151.225C65.1995 152.464 66.2045 153.47 67.4443 153.47H56.6483C55.4085 153.47 54.4034 152.464 54.4034 151.225V143.325C54.4034 139.277 56.2368 135.447 59.3894 132.909Z" fill="#78C2A4"/>
<path d="M47.4968 193.908L51.5445 188.526L16.6149 162.258L49.0331 118.505H75.2415V111.771H45.6415L9.24636 160.89C8.12653 162.402 8.43603 164.533 9.93923 165.664L47.4968 193.908Z" fill="#407093"/>
<path d="M9.24645 160.89L45.6413 111.771H49.4542L13.7246 159.993C12.6048 161.504 12.9143 163.635 14.4175 164.766L49.5457 191.184L47.4967 193.908L9.93932 165.664C8.43611 164.533 8.12662 162.402 9.24645 160.89Z" fill="#365E7D"/>
<path d="M42.3594 187.135H54.2885C54.9731 187.135 55.6203 187.448 56.0464 187.984L61.7857 195.201C62.1965 195.718 62.4202 196.358 62.4202 197.019V203.282H34.2277V197.019C34.2277 196.358 34.4514 195.718 34.8622 195.201L40.6015 187.984C41.0275 187.448 41.6746 187.135 42.3594 187.135Z" fill="#365E7D"/>
<path d="M34.8613 195.202L40.6013 187.983C41.0271 187.447 41.6742 187.135 42.3583 187.135H51.0452C50.3608 187.135 49.714 187.448 49.2882 187.983L43.5482 195.202C43.1376 195.718 42.9142 196.358 42.9142 197.018V203.282H34.2273V197.018C34.2273 196.358 34.4508 195.718 34.8613 195.202Z" fill="#2B4D66"/>
<path d="M47.4652 120.986C44.4833 120.986 42.066 118.569 42.066 115.587C42.066 112.605 44.4833 110.188 47.4652 110.188C50.4472 110.188 52.8645 112.605 52.8645 115.587C52.8645 118.569 50.4472 120.986 47.4652 120.986Z" fill="#365E7D"/>
<path d="M45.7466 110.469C45.5653 111.008 45.4656 111.586 45.4656 112.187C45.4656 115.169 47.8829 117.586 50.8649 117.586C51.4659 117.586 52.0433 117.486 52.5833 117.305C51.8654 119.444 49.8459 120.986 47.4647 120.986C44.4828 120.986 42.0655 118.569 42.0655 115.587C42.0657 113.206 43.6076 111.187 45.7466 110.469Z" fill="#2B4D66"/>
<path d="M11.9189 168.257C8.93693 168.257 6.51961 165.84 6.51961 162.858C6.51961 159.876 8.93693 157.459 11.9189 157.459C14.9008 157.459 17.3181 159.876 17.3181 162.858C17.3181 165.84 14.9008 168.257 11.9189 168.257Z" fill="#365E7D"/>
<path d="M10.2007 157.739C10.0194 158.279 9.91972 158.857 9.91972 159.458C9.91972 162.44 12.337 164.857 15.319 164.857C15.92 164.857 16.4974 164.757 17.0374 164.576C16.3195 166.715 14.3 168.257 11.9188 168.257C8.9369 168.257 6.51959 165.84 6.51959 162.858C6.51959 160.477 8.06143 158.457 10.2007 157.739Z" fill="#2B4D66"/>
<path d="M77.2895 122.119C73.4337 122.119 70.308 118.994 70.308 115.138C70.308 111.282 73.4337 108.156 77.2895 108.156C81.1453 108.156 84.271 111.282 84.271 115.138C84.271 118.994 81.1453 122.119 77.2895 122.119Z" fill="#365E7D"/>
<path d="M74.4813 108.746C74.1033 109.606 73.8918 110.555 73.8918 111.554C73.8918 115.41 77.0174 118.535 80.8733 118.535C81.8725 118.535 82.8219 118.324 83.6812 117.946C82.6002 120.403 80.1458 122.119 77.2892 122.119C73.4334 122.119 70.3077 118.994 70.3077 115.138C70.3079 112.281 72.0242 109.827 74.4813 108.746Z" fill="#2B4D66"/>
<path d="M29.0897 211.104H87.1107C88.3512 211.104 89.3567 210.099 89.3567 208.858V202.779C89.3567 201.538 88.3512 200.533 87.1107 200.533H29.0897C27.8492 200.533 26.8437 201.538 26.8437 202.779V208.858C26.8437 210.099 27.8495 211.104 29.0897 211.104Z" fill="#95D6A4"/>
<path d="M29.0885 200.533H31.2642V204.439C31.2642 205.679 32.2692 206.684 33.509 206.684H89.3567V208.86C89.3567 210.099 88.3516 211.104 87.1119 211.104H29.0885C27.8488 211.104 26.8437 210.099 26.8437 208.86V202.778C26.8437 201.538 27.8488 200.533 29.0885 200.533Z" fill="#78C2A4"/>
<path d="M10.8846 155.851L14.4718 151.01C15.0254 150.262 16.0799 150.106 16.8269 150.659C17.5739 151.213 17.7309 152.267 17.1775 153.014L14.7074 156.348C15.7594 156.8 16.6805 157.5 17.3972 158.374L44.3775 121.96C43.3488 121.46 42.4585 120.718 41.7812 119.808L21.501 147.179C21.1706 147.625 20.6621 147.86 20.1469 147.86C19.7985 147.86 19.447 147.753 19.1459 147.529C18.3989 146.976 18.2419 145.922 18.7953 145.175L40.3846 116.037C40.3885 116.032 40.393 116.028 40.3968 116.023C40.388 115.879 40.3822 115.734 40.3822 115.587C40.3822 111.682 43.5595 108.505 47.465 108.505C49.1526 108.505 50.7036 109.099 51.9216 110.088H68.6247V102.846C68.6247 100.061 70.8906 97.7954 73.6754 97.7954H89.2016C91.9866 97.7954 94.2523 100.061 94.2523 102.846V121.645C94.2523 122.703 94.7251 123.691 95.5493 124.355L100.431 128.286C101.155 128.869 101.27 129.929 100.686 130.653C100.354 131.066 99.8663 131.281 99.374 131.281C99.0034 131.281 98.6303 131.159 98.319 130.908L93.4372 126.977C91.8152 125.671 90.885 123.727 90.885 121.645V102.846C90.885 101.918 90.1296 101.163 89.2014 101.163H73.6752C72.7467 101.163 71.9916 101.918 71.9916 102.846V108.288C73.4575 107.152 75.2949 106.473 77.2889 106.473C82.0667 106.473 85.9538 110.36 85.9538 115.138C85.9538 119.916 82.0667 123.803 77.2889 123.803C75.2907 123.803 73.4497 123.122 71.9822 121.981C71.8876 123.936 70.9735 125.742 69.4391 126.977L60.4448 134.22C57.6751 136.45 56.0863 139.769 56.0863 143.325V151.225C56.0863 151.534 56.338 151.786 56.6475 151.786H106.228C106.538 151.786 106.79 151.534 106.79 151.225V143.324C106.79 140.431 105.723 137.653 103.787 135.502C103.165 134.811 103.221 133.747 103.912 133.125C104.603 132.503 105.667 132.558 106.29 133.249C108.783 136.019 110.157 139.597 110.157 143.324V151.224C110.157 153.39 108.394 155.153 106.228 155.153H91.0224C89.5549 159.125 85.7449 161.824 81.4381 161.824C77.1333 161.824 73.3217 159.125 71.8539 155.153H56.648C54.482 155.153 52.7196 153.391 52.7196 151.224V143.325C52.7196 138.744 54.7657 134.469 58.3333 131.597L67.3277 124.355C68.1522 123.691 68.6249 122.703 68.6249 121.645V120.189H52.8427C51.6645 121.564 49.9703 122.483 48.0626 122.643L18.9626 161.917C18.9626 161.917 50.2338 185.437 50.2518 185.452H54.2888C55.4929 185.452 56.6138 185.993 57.3635 186.935L63.1035 194.154C63.7485 194.965 64.1036 195.982 64.1036 197.018V198.849H68.6016V194.626C68.6016 192.831 70.0617 191.371 71.8564 191.371H82.1327C83.9275 191.371 85.3876 192.831 85.3876 194.626V198.849H87.1118C89.2778 198.849 91.0401 200.611 91.0401 202.778V208.86C91.0401 211.026 89.2778 212.788 87.1118 212.788H50.9749C50.0451 212.788 49.2914 212.034 49.2914 211.104C49.2914 210.175 50.0451 209.421 50.9749 209.421H87.1118C87.4213 209.421 87.673 209.169 87.673 208.86V202.778C87.673 202.468 87.4213 202.216 87.1118 202.216H29.0884C28.7789 202.216 28.5272 202.468 28.5272 202.778V208.86C28.5272 209.169 28.7789 209.421 29.0884 209.421H43.0499C43.9797 209.421 44.7335 210.175 44.7335 211.104C44.7335 212.034 43.9797 212.788 43.0499 212.788H29.0884C26.9224 212.788 25.16 211.026 25.16 208.86V202.778C25.16 200.612 26.9222 198.849 29.0884 198.849H32.5438V197.018C32.5438 195.983 32.8987 194.966 33.5437 194.154L37.8391 188.752L12.7568 169.89C12.4817 169.922 12.2025 169.941 11.9189 169.941C8.01337 169.941 4.83604 166.763 4.83604 162.858C4.83582 159.304 7.46761 156.353 10.8846 155.851ZM81.4381 158.458C83.8798 158.458 86.0793 157.162 87.2966 155.153H75.5797C76.7975 157.161 78.9976 158.458 81.4381 158.458ZM77.2893 120.436C80.2106 120.436 82.5871 118.059 82.5871 115.138C82.5871 112.217 80.2106 109.84 77.2893 109.84C74.368 109.84 71.9914 112.217 71.9914 115.138C71.9914 118.059 74.368 120.436 77.2893 120.436ZM68.6247 116.822V113.455H54.219C54.4321 114.128 54.5476 114.844 54.5476 115.587C54.5476 116.008 54.5085 116.421 54.4375 116.822H68.6247ZM51.1807 115.587C51.1807 113.538 49.5137 111.871 47.465 111.871C45.4162 111.871 43.7493 113.538 43.7493 115.587C43.7493 117.636 45.4162 119.303 47.465 119.303C49.5137 119.303 51.1807 117.636 51.1807 115.587ZM82.0204 194.738H71.9685V198.849H82.0204V194.738ZM35.9109 197.018V198.849H60.7363V197.018C60.7363 196.74 60.6408 196.467 60.4679 196.25L54.7279 189.031C54.6208 188.896 54.4607 188.819 54.2886 188.819H42.3586C42.1866 188.819 42.0264 188.896 41.9193 189.031L36.1793 196.249C36.0062 196.467 35.9109 196.74 35.9109 197.018ZM40.0536 186.205C40.7161 185.722 41.5153 185.452 42.3586 185.452H44.6555L18.4011 165.708C17.9389 166.755 17.2307 167.669 16.3494 168.378L40.0536 186.205ZM11.9189 166.574C13.9676 166.574 15.6345 164.907 15.6345 162.858C15.6345 160.809 13.9676 159.142 11.9189 159.142C9.8701 159.142 8.20316 160.809 8.20316 162.858C8.20293 164.907 9.86987 166.574 11.9189 166.574Z" fill="black"/>
<path d="M79.7547 173.301V168.194C79.7547 167.264 80.5084 166.51 81.4383 166.51C82.3681 166.51 83.1218 167.264 83.1218 168.194V173.301C83.1218 174.231 82.3681 174.984 81.4383 174.984C80.5082 174.984 79.7547 174.231 79.7547 173.301Z" fill="black"/>
<path d="M94.5455 163.306C95.2676 162.719 96.3276 162.83 96.9138 163.551L100.278 167.694C100.864 168.415 100.754 169.476 100.032 170.062C99.7201 170.315 99.3448 170.439 98.972 170.439C98.4822 170.439 97.9968 170.226 97.664 169.816L94.3 165.674C93.7138 164.952 93.8239 163.892 94.5455 163.306Z" fill="black"/>
<path d="M63.9503 170.439C63.5775 170.439 63.2022 170.315 62.89 170.062C62.1684 169.476 62.0583 168.415 62.6445 167.694L66.0085 163.552C66.5947 162.83 67.6547 162.72 68.3768 163.306C69.0984 163.892 69.2085 164.953 68.6223 165.674L65.2583 169.816C64.9255 170.226 64.4401 170.439 63.9503 170.439Z" fill="black"/>
</g>
<g clip-path="url(#clip1)">
<path d="M519.773 144.758H530.344C531.209 144.758 531.91 145.459 531.91 146.324V190.514H518.207V146.324C518.207 145.459 518.908 144.758 519.773 144.758Z" fill="#037E73"/>
<path d="M466.775 211.692C464.794 211.692 463.189 210.087 463.189 208.107V202.005H470.36V208.107C470.36 210.087 468.755 211.692 466.775 211.692Z" fill="#7C4B37"/>
<path d="M528.53 211.692C526.55 211.692 524.945 210.087 524.945 208.107V202.005H532.115V208.107C532.115 210.087 530.51 211.692 528.53 211.692Z" fill="#7C4B37"/>
<path d="M504.504 190.514H490.801V140.321C490.801 139.456 491.502 138.755 492.367 138.755H502.938C503.803 138.755 504.504 139.456 504.504 140.321V190.514Z" fill="#E53950"/>
<path d="M490.801 190.514H477.098V140.321C477.098 139.456 477.799 138.755 478.664 138.755H489.235C490.1 138.755 490.801 139.456 490.801 140.321V190.514Z" fill="#0078C8"/>
<path d="M477.098 148.826H490.801V155.524H477.098V148.826Z" fill="#7BACDF"/>
<path d="M477.098 190.514H463.395V140.321C463.395 139.456 464.096 138.755 464.961 138.755H475.532C476.397 138.755 477.098 139.456 477.098 140.321V190.514Z" fill="#FEC165"/>
<path d="M506.07 144.758H516.641C517.506 144.758 518.207 145.459 518.207 146.324V190.514H504.504V146.324C504.504 145.459 505.205 144.758 506.07 144.758Z" fill="#0078C8"/>
<path d="M540.566 203.31H454.502C453.608 203.31 452.885 202.586 452.885 201.693V192.131C452.885 191.237 453.608 190.514 454.502 190.514H540.566C541.459 190.514 542.183 191.237 542.183 192.131V201.693C542.183 202.586 541.459 203.31 540.566 203.31Z" fill="#AA6A51"/>
<path d="M540.566 190.514H533.436C534.329 190.514 535.053 191.238 535.053 192.131V201.693C535.053 202.586 534.329 203.31 533.436 203.31H540.566C541.46 203.31 542.184 202.586 542.184 201.693V192.131C542.184 191.238 541.46 190.514 540.566 190.514Z" fill="#935B44"/>
<path d="M475.532 138.755H469.42C470.285 138.755 470.986 139.456 470.986 140.321V190.514H477.098V140.321C477.098 139.456 476.397 138.755 475.532 138.755Z" fill="#FDB441"/>
<path d="M516.641 144.758H510.529C511.394 144.758 512.095 145.459 512.095 146.324V190.514H518.207V146.324C518.207 145.459 517.506 144.758 516.641 144.758Z" fill="#0268B4"/>
<path d="M530.344 144.758H524.232C525.097 144.758 525.798 145.459 525.798 146.324V190.514H531.91V146.324C531.91 145.459 531.209 144.758 530.344 144.758Z" fill="#006E66"/>
<path d="M502.938 138.755H496.826C497.691 138.755 498.392 139.456 498.392 140.321V190.514H504.504V140.321C504.504 139.456 503.803 138.755 502.938 138.755Z" fill="#CA2E43"/>
<path d="M490.801 148.826H504.504V155.524H490.801V148.826Z" fill="#FEE8C7"/>
<path d="M498.392 148.826H504.504V155.524H498.392V148.826Z" fill="#FEDBA6"/>
<path d="M518.207 181.61H504.504V175.689H518.207V181.61Z" fill="#7BACDF"/>
<path d="M512.095 175.689H518.207V181.61H512.095V175.689Z" fill="#5F99D7"/>
<path d="M531.91 181.61H518.207V175.689H531.91V181.61Z" fill="#0AB69F"/>
<path d="M525.798 175.689H531.91V181.61H525.798V175.689Z" fill="#01998D"/>
<path d="M489.235 138.755H483.123C483.988 138.755 484.689 139.456 484.689 140.321V190.514H490.801V140.321C490.801 139.456 490.1 138.755 489.235 138.755Z" fill="#0268B4"/>
<path d="M484.689 148.826H490.801V155.524H484.689V148.826Z" fill="#5F99D7"/>
<path d="M463.395 148.826H477.098V155.524H463.395V148.826Z" fill="#FEE8C7"/>
<path d="M470.986 148.826H477.098V155.524H470.986V148.826Z" fill="#FEDBA6"/>
<path d="M540.566 189.166H533.258C533.258 188.343 533.258 146.995 533.258 146.324C533.258 144.718 531.951 143.411 530.344 143.411H519.773C519.196 143.411 518.66 143.581 518.207 143.871C517.754 143.581 517.217 143.411 516.641 143.411H506.07C505.996 143.411 505.924 143.416 505.851 143.422V140.321C505.851 138.714 504.544 137.407 502.938 137.407H492.367C491.79 137.407 491.254 137.578 490.801 137.868C490.348 137.578 489.811 137.407 489.235 137.407H478.664C478.087 137.407 477.55 137.578 477.098 137.868C476.645 137.578 476.108 137.407 475.532 137.407H464.961C463.354 137.407 462.047 138.714 462.047 140.321V168.461C462.047 169.206 462.65 169.809 463.395 169.809C464.139 169.809 464.742 169.206 464.742 168.461V156.872H475.75V189.166H464.742V174.75C464.742 174.006 464.139 173.402 463.395 173.402C462.65 173.402 462.047 174.006 462.047 174.75V189.166H454.502C452.867 189.166 451.537 190.496 451.537 192.131V201.693C451.537 203.328 452.867 204.658 454.502 204.658H461.842V208.107C461.842 210.827 464.055 213.04 466.775 213.04C469.495 213.04 471.708 210.827 471.708 208.107V204.658H510.92C511.664 204.658 512.267 204.055 512.267 203.31C512.267 202.566 511.664 201.963 510.92 201.963C510.446 201.963 455.516 201.963 454.502 201.963C454.353 201.963 454.232 201.842 454.232 201.693V192.131C454.232 191.982 454.353 191.861 454.502 191.861H540.566C540.715 191.861 540.836 191.982 540.836 192.131V201.693C540.836 201.842 540.715 201.963 540.566 201.963C539.725 201.963 518.069 201.963 517.208 201.963C516.464 201.963 515.861 202.566 515.861 203.31C515.861 204.055 516.464 204.658 517.208 204.658H523.597V208.107C523.597 210.827 525.81 213.04 528.53 213.04C531.25 213.04 533.463 210.827 533.463 208.107V204.658H540.566C542.201 204.658 543.531 203.328 543.531 201.693V192.131C543.531 190.496 542.201 189.166 540.566 189.166ZM469.012 204.658V208.107C469.012 209.341 468.009 210.345 466.775 210.345C465.541 210.345 464.537 209.341 464.537 208.107V204.658H469.012ZM478.445 150.174H489.453V154.177H478.445V150.174ZM492.148 150.174H503.156V154.177H492.148V150.174ZM505.851 177.037H516.859V180.263H505.851V177.037ZM519.555 177.037H530.563V180.263H519.555V177.037ZM519.773 146.106H530.344C530.464 146.106 530.563 146.204 530.563 146.324V174.342H519.554V146.324C519.555 146.204 519.653 146.106 519.773 146.106ZM506.07 146.106H516.641C516.761 146.106 516.859 146.204 516.859 146.324V174.342H505.851C505.851 173.023 505.851 147.356 505.851 146.324C505.851 146.204 505.949 146.106 506.07 146.106ZM492.367 140.102H502.938C503.058 140.102 503.156 140.2 503.156 140.321V146.324V147.479H492.148V140.321C492.148 140.2 492.246 140.102 492.367 140.102ZM478.664 140.102H489.235C489.355 140.102 489.453 140.2 489.453 140.321V147.479H478.445V140.321C478.445 140.2 478.543 140.102 478.664 140.102ZM464.961 140.102H475.531C475.652 140.102 475.75 140.2 475.75 140.321V147.479H464.742V140.321C464.742 140.2 464.84 140.102 464.961 140.102ZM464.742 150.174H475.75V154.177H464.742V150.174ZM478.445 156.872H489.453V189.166H478.445V156.872ZM492.148 156.872H503.156V189.166H492.148V156.872ZM505.851 182.958H516.859V189.166H505.851V182.958ZM519.555 189.166V182.958H530.563V189.166H519.555ZM530.768 208.107C530.768 209.341 529.764 210.345 528.53 210.345C527.296 210.345 526.292 209.341 526.292 208.107V204.658H530.768V208.107Z" fill="black"/>
</g>
<path d="M243.624 25.9594C249.373 14.8435 321.052 14.8434 327.185 25.9594C333.318 37.0753 344.434 84.2218 344.434 88.0551C344.434 91.8884 368.199 117.57 369.349 122.553C370.498 127.536 371.265 168.167 369.349 170.083C367.432 172 334.851 204.581 334.851 204.581H237.107C237.107 204.581 205.293 175.066 202.61 170.083C199.926 165.1 201.076 127.536 202.61 122.553C204.143 117.57 232.508 93.0379 232.508 88.0551C232.508 83.0723 237.874 37.0753 243.624 25.9594Z" fill="white" stroke="#316376" stroke-width="4.5997"/>
<path d="M196.924 137.276C207.273 126.927 213.789 116.961 262.086 99.712L285.085 101.245V212.788H241.388C231.62 187.303 223.916 173.11 241.388 146.476L223.372 150.692C229.927 157.265 208.662 170.485 207.273 182.507C220 180.052 224.591 189.406 224.591 191.706L228.739 212.788C228.739 212.788 209.191 220.071 196.924 212.788C184.658 205.505 174.331 188.522 176.225 174.457C179.404 162.628 186.575 147.626 196.924 137.276Z" fill="#0F3057"/>
<path d="M373.245 136.893C362.896 126.544 356.38 116.578 308.083 99.3287L285.085 100.862V212.405H328.782C338.55 186.92 346.253 172.727 328.782 146.092L346.797 150.309C338.512 155.901 359.482 168.598 362.897 182.123C350.17 179.669 345.578 189.023 345.578 191.323L341.431 212.405C341.431 212.405 360.979 219.687 373.245 212.405C385.512 205.122 395.838 188.138 393.944 174.074C390.765 162.244 383.595 147.242 373.245 136.893Z" fill="#0F3057"/>
<ellipse cx="283.935" cy="109.295" rx="23.3818" ry="22.2319" fill="white"/>
<ellipse cx="284.318" cy="101.245" rx="20.6986" ry="21.8486" fill="#C59074"/>
<ellipse rx="4.5997" ry="6.51624" transform="matrix(-1 0 0 1 245.221 58.3148)" fill="#E4AE92"/>
<path d="M246.754 62.5313L246.371 55.0663C244.771 53.2173 243.304 53.8876 242.921 58.2094C243.304 60.9597 244.761 62.0928 246.754 62.5313Z" fill="#C49074" stroke="#C49074" stroke-width="0.766616"/>
<ellipse cx="318.049" cy="59.848" rx="4.5997" ry="6.51624" fill="#E4AE92"/>
<path d="M316.516 64.0645L316.899 56.5995C318.499 54.7505 319.966 55.4208 320.349 59.7427C319.966 62.4929 318.509 63.626 316.516 64.0645Z" fill="#C49074" stroke="#C49074" stroke-width="0.766616"/>
<path d="M315.749 80.93C315.749 80.93 319.465 36.5377 315.381 28.0484C302.085 0.414164 260.869 -0.347492 247.629 28.0484C243.55 36.7952 247.849 74.6974 248.496 80.1624C248.55 80.616 248.645 81.0504 248.786 81.485C261.221 119.909 305.027 121.492 315.749 80.93Z" fill="#E4AE92"/>
<path d="M274.642 45.509C274.259 46.2756 256.243 47.4255 255.476 47.0422C254.71 46.6589 253.237 43.5925 253.62 43.5925C254.004 43.5925 271.253 40.526 273.169 40.526C275.086 40.526 275.025 44.7424 274.642 45.509Z" fill="black" stroke="black" stroke-width="0.766616"/>
<ellipse cx="266.207" cy="55.4749" rx="4.21639" ry="4.983" fill="black"/>
<circle cx="266.974" cy="53.1752" r="1.14992" fill="white"/>
<ellipse cx="297.638" cy="55.4749" rx="4.21639" ry="4.983" fill="black"/>
<circle cx="298.405" cy="53.1752" r="1.14992" fill="white"/>
<path d="M289.037 45.509C289.42 46.2756 307.436 47.4255 308.202 47.0422C308.969 46.6589 310.442 43.5925 310.058 43.5925C309.675 43.5925 292.426 40.526 290.509 40.526C288.593 40.526 288.654 44.7424 289.037 45.509Z" fill="black" stroke="black" stroke-width="0.766616"/>
<path d="M247.628 36.7395C247.838 43.7062 246.809 49.55 246.479 55.9049L245.712 54.3717C243.815 36.8486 247.808 21.0239 250.875 16.8075C253.941 12.5911 265.261 7.60813 265.261 7.60813L279.443 6.84151C288.829 6.62662 293.21 7.09462 298.609 9.52467C303.777 8.76643 307.165 13.7067 312.204 20.2107C315.678 23.5879 319.609 37.3807 317.391 54.3717L317.007 55.9049C316.795 49.6388 315.52 44.6089 315.857 36.7395C312.348 27.4103 305.123 20.0557 305.688 15.611C292.288 11.2607 285.082 7.70108 257.391 12.9279C257.406 17.5298 250.272 26.9212 247.628 36.7395Z" fill="#B77A63"/>
<path d="M267.357 16.7609C271.833 18.1418 274.563 20.9698 280.066 22.6842C280.51 22.8226 280.993 22.7362 281.372 22.4658C287.14 18.3472 288.76 17.3257 291.462 17.4925C291.741 17.5097 292.023 17.4631 292.276 17.3442C297.25 15.0077 299.9 14.3266 303.771 15.2276C304.169 18.3329 306.124 18.981 308.876 20.4529C309.049 20.5454 309.239 20.6064 309.434 20.627C312.734 20.976 313.363 20.3747 313.66 19.064C313.718 18.8122 313.694 18.5476 313.608 18.3044C311.954 13.6647 309.851 12.1537 306.071 8.71141C299.813 4.87602 289.13 -0.710045 285.756 1.04525C286.442 2.43026 280.389 -2.02118 280.389 2.57852C277.416 1.34887 271.223 -0.475379 267.567 1.04526C268.562 3.32373 266.181 2.79605 265.057 3.72841C259.935 2.95286 257.197 2.94764 255.619 3.99646C255.003 4.40536 255.089 5.2572 255.564 5.82325C256.775 7.26782 256.228 7.35893 255.474 7.9448L250.491 9.47804C247.311 10.4617 247.862 11.0142 250.875 15.2276C251.832 16.4969 251.454 17.2737 254.708 17.5275C259.121 18.7233 262.525 18.3293 267.357 16.7609Z" fill="#23130C" stroke="#23130C" stroke-width="0.766616"/>
<path d="M288.822 74.2571C284.171 75.4293 281.207 75.4516 276.556 74.2571C277.749 76.1092 279.256 76.867 282.689 77.3235C286.582 76.8974 287.571 76.0439 288.822 74.2571Z" fill="#B77A63"/>
<path d="M271.19 83.0731C280.563 88.0264 285.781 87.942 294.572 83.0731C295.674 100.55 272.993 99.8584 271.19 83.0731Z" fill="white"/>
<path d="M273.106 89.5895C280.411 91.7561 289.365 90.8864 292.655 89.2062" stroke="#AEAEAE" stroke-width="0.766616"/>
<path d="M288.056 99.172H280.773C282.651 101.89 281.284 104.538 280.773 105.305C278.473 108.755 271.19 106.072 265.057 104.538C266.59 106.072 273.435 111.289 280.773 113.354C284.365 114.014 285.996 113.912 288.056 113.354C294.691 110.872 300.705 106.455 302.621 103.388C294.955 106.838 290.068 107.988 288.056 105.305C286.906 103.772 286.55 102.295 288.056 99.172Z" fill="#23130C" stroke="#23130C" stroke-width="0.766616"/>
<rect x="216.856" y="136.126" width="133.391" height="76.6616" rx="3.83308" fill="#606860"/>
<path d="M216.856 146.026C216.856 143.909 218.572 142.193 220.689 142.193H346.414C348.531 142.193 350.247 143.909 350.247 146.026V208.955C350.247 211.072 348.531 212.788 346.414 212.788H220.689C218.572 212.788 216.856 211.072 216.856 208.955V146.026Z" fill="#858585"/>
<g clip-path="url(#clip2)">
<path d="M222.782 192.397L222.161 192.645L222.69 193.055L238.376 205.218L238.898 205.622L238.991 204.969L241.786 185.344L241.881 184.683L241.262 184.935L234.117 187.847L233.915 187.929L233.883 188.145L233.323 191.871L230.368 189.567L230.194 189.431L229.99 189.513L222.782 192.397ZM234.032 192.756L234.734 188.53L237.188 187.518L235.699 197.709L227.544 191.412L230.018 190.434L233.423 192.999L233.928 193.38L234.032 192.756ZM223.862 192.895L226.612 191.788L235.841 198.948L236.361 199.352L236.455 198.7L238.128 187.137L240.822 186.047L238.23 203.979L223.862 192.895Z" stroke="white" stroke-width="0.766616"/>
<path d="M226.705 191.303L230.027 189.963L233.653 192.691L234.362 188.214L237.68 186.873L236.042 198.56L226.705 191.303Z" fill="#35495E"/>
<path d="M223.093 192.791L226.702 191.305L236.039 198.561L237.677 186.875L241.304 185.414L238.512 204.688L223.093 192.791Z" fill="#41B883"/>
</g>
<g clip-path="url(#clip3)">
<path fill-rule="evenodd" clip-rule="evenodd" d="M331.039 198.3C331.075 198.929 331.704 198.641 331.992 198.444C332.261 198.246 332.351 198.408 332.369 198.031C332.387 197.779 332.405 197.545 332.405 197.294C331.992 197.258 331.542 197.348 331.201 197.599C331.039 197.725 330.698 198.138 331.039 198.3Z" fill="#F6D2A2"/>
<path d="M331.381 198.749C331.255 198.749 331.021 198.695 330.985 198.336C330.877 198.264 330.842 198.174 330.842 198.12C330.824 197.905 331.057 197.653 331.183 197.563C331.47 197.348 331.848 197.24 332.243 197.24H332.477V197.294C332.495 197.491 332.477 197.689 332.459 197.869C332.459 197.923 332.459 197.977 332.441 198.03C332.423 198.3 332.369 198.336 332.243 198.39C332.189 198.408 332.135 198.426 332.045 198.498C331.956 198.552 331.65 198.749 331.381 198.749ZM332.243 197.348C331.866 197.348 331.524 197.455 331.255 197.653C331.129 197.743 330.949 197.959 330.967 198.102C330.967 198.156 331.003 198.21 331.075 198.246L331.111 198.264V198.3C331.129 198.587 331.273 198.623 331.381 198.623C331.56 198.623 331.812 198.498 331.974 198.39C332.081 198.318 332.153 198.3 332.207 198.282C332.297 198.246 332.315 198.246 332.333 198.03C332.333 197.977 332.333 197.923 332.351 197.869C332.369 197.707 332.369 197.527 332.369 197.366C332.315 197.348 332.279 197.348 332.243 197.348Z" fill="black"/>
<path fill-rule="evenodd" clip-rule="evenodd" d="M331.039 198.3C331.129 198.264 331.237 198.246 331.291 198.156L331.039 198.3Z" fill="#C6B198"/>
<path d="M331.039 198.354C331.021 198.354 330.986 198.336 330.986 198.318C330.968 198.282 330.986 198.246 331.021 198.246C331.039 198.246 331.057 198.228 331.057 198.228C331.129 198.192 331.201 198.174 331.237 198.12C331.255 198.102 331.291 198.084 331.327 198.102C331.345 198.12 331.363 198.156 331.345 198.192C331.273 198.282 331.183 198.318 331.111 198.336L331.075 198.354H331.039Z" fill="black"/>
<path fill-rule="evenodd" clip-rule="evenodd" d="M332.513 190.7C330.069 190.017 331.884 186.909 333.842 188.184L332.513 190.7Z" fill="#6AD7E5"/>
<path d="M332.549 190.772L332.495 190.754C331.237 190.394 331.255 189.496 331.291 189.226C331.381 188.544 332.028 187.825 332.89 187.825C333.232 187.825 333.555 187.933 333.878 188.148L333.932 188.184L332.549 190.772ZM332.89 187.951C332.082 187.951 331.489 188.616 331.399 189.244C331.309 189.891 331.704 190.394 332.477 190.628L333.753 188.202C333.483 188.041 333.196 187.951 332.89 187.951Z" fill="black"/>
<path fill-rule="evenodd" clip-rule="evenodd" d="M343.347 187.951C345.27 186.603 347.031 189.658 344.785 190.43L343.347 187.951Z" fill="#6AD7E5"/>
<path d="M344.767 190.502L343.275 187.933L343.329 187.897C343.671 187.663 344.012 187.537 344.353 187.537C345.18 187.537 345.773 188.22 345.899 188.885C345.953 189.154 346.006 190.071 344.821 190.466L344.767 190.502ZM343.437 187.987L344.821 190.376C345.521 190.125 345.881 189.586 345.773 188.939C345.665 188.328 345.108 187.699 344.353 187.699C344.048 187.681 343.743 187.771 343.437 187.987Z" fill="black"/>
<path fill-rule="evenodd" clip-rule="evenodd" d="M343.778 206.134C344.263 206.439 345.162 207.356 344.425 207.805C343.724 208.452 343.329 207.086 342.7 206.906C342.97 206.547 343.311 206.206 343.778 206.134Z" fill="#F6D2A2"/>
<path d="M344.048 208.038C343.76 208.038 343.509 207.751 343.293 207.481C343.096 207.266 342.898 207.032 342.682 206.96L342.593 206.942L342.646 206.871C342.862 206.565 343.221 206.17 343.76 206.08H343.778L343.796 206.098C344.102 206.296 344.767 206.853 344.749 207.374C344.749 207.571 344.641 207.733 344.443 207.859C344.317 207.985 344.192 208.038 344.048 208.038ZM342.79 206.871C343.006 206.96 343.185 207.194 343.365 207.392C343.581 207.661 343.796 207.895 344.03 207.895C344.138 207.895 344.246 207.841 344.353 207.733H344.371C344.533 207.625 344.623 207.499 344.623 207.338C344.623 206.924 344.102 206.403 343.742 206.17C343.419 206.26 343.096 206.475 342.79 206.871ZM344.425 207.859C344.407 207.859 344.389 207.841 344.371 207.823C344.335 207.751 344.299 207.661 344.281 207.589C344.228 207.445 344.174 207.302 344.066 207.194C344.048 207.176 344.048 207.14 344.066 207.104C344.084 207.086 344.12 207.086 344.156 207.104C344.281 207.23 344.353 207.392 344.407 207.553L344.497 207.769C344.515 207.805 344.497 207.841 344.479 207.859H344.425Z" fill="black"/>
<path fill-rule="evenodd" clip-rule="evenodd" d="M335.01 207.176C334.435 207.266 334.112 207.787 333.627 208.056C333.178 208.326 332.998 207.966 332.962 207.895C332.89 207.859 332.89 207.931 332.782 207.823C332.369 207.158 333.214 206.673 333.663 206.349C334.292 206.206 334.687 206.745 335.01 207.176Z" fill="#F6D2A2"/>
<path d="M333.321 208.2C333.088 208.2 332.962 208.002 332.926 207.931H332.908C332.854 207.931 332.818 207.913 332.746 207.841V207.823C332.351 207.194 333.034 206.709 333.483 206.385L333.645 206.278H333.681C333.753 206.26 333.807 206.26 333.878 206.26C334.417 206.26 334.759 206.727 335.046 207.104L335.136 207.23L335.028 207.248C334.687 207.302 334.435 207.517 334.184 207.733C334.022 207.877 333.86 208.002 333.681 208.11C333.537 208.164 333.429 208.2 333.321 208.2ZM332.926 207.823C332.944 207.823 332.962 207.823 332.998 207.841H333.016L333.034 207.859C333.07 207.913 333.16 208.074 333.339 208.074C333.429 208.074 333.519 208.038 333.609 207.985C333.789 207.895 333.95 207.751 334.094 207.625C334.328 207.428 334.579 207.212 334.903 207.122C334.633 206.763 334.31 206.367 333.86 206.367C333.807 206.367 333.753 206.367 333.699 206.385L333.555 206.493C333.088 206.817 332.513 207.23 332.854 207.769C332.872 207.805 332.89 207.823 332.926 207.823ZM332.962 207.949C332.926 207.949 332.89 207.913 332.908 207.877C332.926 207.697 333.016 207.571 333.106 207.428C333.16 207.356 333.196 207.284 333.232 207.212C333.25 207.176 333.286 207.176 333.303 207.176C333.339 207.194 333.339 207.23 333.339 207.248C333.303 207.338 333.25 207.41 333.196 207.481C333.106 207.607 333.034 207.715 333.016 207.859C333.016 207.931 332.998 207.949 332.962 207.949Z" fill="black"/>
<path fill-rule="evenodd" clip-rule="evenodd" d="M332.621 189.855C332.297 189.694 332.064 189.46 332.261 189.083C332.441 188.741 332.782 188.777 333.106 188.939L332.621 189.855ZM344.282 189.532C344.605 189.37 344.839 189.137 344.641 188.759C344.461 188.418 344.12 188.454 343.796 188.616L344.282 189.532Z" fill="black"/>
<path fill-rule="evenodd" clip-rule="evenodd" d="M346.491 198.21C346.455 198.839 345.826 198.552 345.539 198.354C345.269 198.156 345.18 198.318 345.162 197.941C345.144 197.689 345.126 197.456 345.126 197.204C345.539 197.168 345.988 197.258 346.33 197.509C346.509 197.653 346.833 198.048 346.491 198.21Z" fill="#F6D2A2"/>
<path d="M346.168 198.659C345.898 198.659 345.593 198.462 345.503 198.408C345.413 198.354 345.359 198.318 345.305 198.3C345.162 198.246 345.126 198.21 345.108 197.941C345.108 197.887 345.108 197.833 345.09 197.779C345.072 197.599 345.054 197.402 345.072 197.204V197.15H345.305C345.701 197.15 346.078 197.258 346.366 197.473C346.491 197.563 346.725 197.815 346.707 198.03C346.707 198.102 346.671 198.192 346.563 198.246C346.527 198.605 346.294 198.659 346.168 198.659ZM345.18 197.276C345.18 197.438 345.18 197.617 345.198 197.779C345.198 197.833 345.198 197.887 345.216 197.941C345.234 198.156 345.252 198.156 345.341 198.192C345.395 198.21 345.467 198.246 345.575 198.3C345.737 198.408 345.988 198.534 346.168 198.534C346.276 198.534 346.419 198.498 346.437 198.21V198.174L346.473 198.156C346.545 198.12 346.581 198.084 346.581 198.012C346.599 197.869 346.419 197.653 346.294 197.563C346.024 197.366 345.665 197.258 345.305 197.258C345.27 197.276 345.234 197.276 345.18 197.276Z" fill="black"/>
<path fill-rule="evenodd" clip-rule="evenodd" d="M346.492 198.21C346.402 198.174 346.294 198.156 346.24 198.066L346.492 198.21Z" fill="#C6B198"/>
<path d="M346.491 198.282H346.473L346.438 198.264C346.348 198.228 346.258 198.21 346.204 198.12C346.186 198.102 346.186 198.049 346.222 198.031C346.24 198.013 346.294 198.013 346.312 198.049C346.348 198.102 346.42 198.12 346.491 198.156C346.509 198.156 346.527 198.174 346.527 198.174C346.563 198.192 346.581 198.228 346.563 198.246C346.545 198.264 346.509 198.282 346.491 198.282Z" fill="black"/>
<path fill-rule="evenodd" clip-rule="evenodd" d="M338.532 186.675C340.976 186.675 343.257 187.016 344.461 189.37C345.539 191.993 345.144 194.832 345.324 197.617C345.467 200.007 345.773 202.756 344.677 204.966C343.509 207.284 340.598 207.877 338.209 207.787C336.322 207.715 334.058 207.104 332.98 205.379C331.74 203.367 332.315 200.366 332.405 198.12C332.513 195.461 331.686 192.784 332.567 190.197C333.447 187.484 335.891 186.873 338.532 186.675Z" fill="#6AD7E5"/>
<path d="M338.622 207.859H338.172C337.436 207.841 336.322 207.715 335.226 207.266C334.166 206.835 333.393 206.224 332.89 205.415C331.884 203.78 332.064 201.534 332.225 199.54C332.261 199.037 332.297 198.57 332.315 198.12C332.351 197.186 332.279 196.216 332.189 195.299C332.046 193.611 331.902 191.868 332.459 190.179C332.89 188.921 333.663 188.023 334.831 187.448C335.747 186.998 336.879 186.747 338.496 186.621C340.904 186.603 343.293 186.945 344.497 189.334C345.288 191.257 345.288 193.323 345.306 195.317C345.306 196.072 345.306 196.845 345.36 197.599C345.377 197.833 345.395 198.066 345.395 198.3C345.539 200.492 345.701 202.972 344.695 204.984C344.192 206.008 343.311 206.763 342.107 207.248C341.137 207.643 339.915 207.859 338.622 207.859ZM338.532 186.729C335.998 186.927 333.519 187.484 332.603 190.215C332.046 191.886 332.189 193.611 332.333 195.281C332.405 196.216 332.495 197.168 332.459 198.12C332.441 198.57 332.405 199.037 332.369 199.54C332.207 201.516 332.028 203.744 333.016 205.343C333.429 206.008 334.759 207.589 338.19 207.715H338.64C342.61 207.715 344.084 205.954 344.623 204.912C345.611 202.936 345.449 200.456 345.324 198.282C345.306 198.049 345.288 197.815 345.288 197.581C345.252 196.827 345.234 196.054 345.234 195.299C345.216 193.323 345.216 191.257 344.443 189.352C343.904 188.292 343.096 187.573 341.982 187.16C340.832 186.783 339.538 186.729 338.532 186.729Z" fill="black"/>
<path fill-rule="evenodd" clip-rule="evenodd" d="M338.963 189.945C339.394 192.496 343.563 191.814 342.97 189.244C342.431 186.944 338.819 187.591 338.963 189.945Z" fill="white"/>
<path d="M340.94 191.616C340.131 191.616 339.107 191.185 338.891 189.963C338.855 189.388 339.035 188.867 339.412 188.472C339.826 188.023 340.454 187.771 341.101 187.771C341.856 187.771 342.754 188.166 343.006 189.262C343.15 189.873 343.042 190.412 342.7 190.843C342.323 191.311 341.658 191.616 340.94 191.616ZM339.017 189.945C339.107 190.448 339.34 190.843 339.718 191.131C340.041 191.382 340.49 191.508 340.94 191.508C341.604 191.508 342.251 191.221 342.611 190.772C342.934 190.376 343.024 189.855 342.898 189.28C342.664 188.256 341.82 187.897 341.101 187.897C340.49 187.897 339.897 188.148 339.502 188.562C339.161 188.921 338.981 189.406 339.017 189.945Z" fill="black"/>
<path fill-rule="evenodd" clip-rule="evenodd" d="M333.986 190.358C334.561 192.568 338.101 192.011 337.975 189.783C337.813 187.124 333.429 187.627 333.986 190.358Z" fill="white"/>
<path d="M335.873 191.832C335.1 191.832 334.202 191.454 333.914 190.376C333.788 189.748 333.914 189.173 334.273 188.741C334.669 188.256 335.316 187.969 336.016 187.969C336.951 187.969 337.939 188.526 338.011 189.783C338.047 190.305 337.885 190.772 337.526 191.149C337.148 191.562 336.519 191.832 335.873 191.832ZM336.016 188.095C335.352 188.095 334.741 188.364 334.363 188.813C334.022 189.226 333.914 189.748 334.04 190.34C334.291 191.347 335.154 191.706 335.873 191.706C336.484 191.706 337.076 191.472 337.454 191.059C337.777 190.718 337.939 190.269 337.903 189.783C337.867 189.011 337.346 188.095 336.016 188.095Z" fill="black"/>
<path fill-rule="evenodd" clip-rule="evenodd" d="M339.466 193C339.466 193.323 339.538 193.7 339.484 194.06C339.394 194.221 339.233 194.239 339.089 194.293C338.891 194.257 338.729 194.132 338.64 193.952C338.586 193.557 338.658 193.161 338.676 192.766L339.466 193Z" fill="white"/>
<path d="M339.089 194.365C338.855 194.329 338.676 194.186 338.586 193.988C338.55 193.7 338.568 193.431 338.586 193.161C338.604 193.036 338.604 192.91 338.604 192.784V192.712L339.52 193V193.036C339.52 193.143 339.538 193.251 339.538 193.377C339.556 193.611 339.574 193.862 339.538 194.096V194.114C339.466 194.257 339.341 194.293 339.215 194.347C339.179 194.329 339.143 194.347 339.089 194.365ZM338.694 193.934C338.766 194.096 338.909 194.203 339.071 194.239C339.107 194.221 339.143 194.221 339.161 194.203C339.269 194.168 339.359 194.132 339.412 194.042C339.448 193.826 339.43 193.593 339.412 193.359C339.412 193.251 339.394 193.143 339.394 193.054L338.712 192.838C338.712 192.946 338.694 193.054 338.694 193.143C338.676 193.431 338.658 193.682 338.694 193.934Z" fill="black"/>
<path fill-rule="evenodd" clip-rule="evenodd" d="M335.567 189.999C335.567 190.358 335.298 190.646 334.974 190.646C334.651 190.646 334.381 190.358 334.381 189.999C334.381 189.64 334.651 189.352 334.974 189.352C335.298 189.352 335.567 189.64 335.567 189.999Z" fill="black"/>
<path fill-rule="evenodd" clip-rule="evenodd" d="M335.37 190.143C335.37 190.233 335.298 190.304 335.226 190.304C335.154 190.304 335.082 190.233 335.082 190.143C335.082 190.053 335.154 189.981 335.226 189.981C335.316 189.981 335.37 190.053 335.37 190.143Z" fill="white"/>
<path fill-rule="evenodd" clip-rule="evenodd" d="M340.58 189.837C340.58 190.197 340.311 190.484 339.987 190.484C339.664 190.484 339.394 190.197 339.394 189.837C339.394 189.478 339.664 189.191 339.987 189.191C340.311 189.191 340.58 189.478 340.58 189.837Z" fill="black"/>
<path fill-rule="evenodd" clip-rule="evenodd" d="M340.401 189.981C340.401 190.071 340.347 190.143 340.257 190.143C340.185 190.143 340.113 190.071 340.113 189.981C340.113 189.891 340.167 189.819 340.257 189.819C340.329 189.819 340.401 189.891 340.401 189.981Z" fill="white"/>
<path fill-rule="evenodd" clip-rule="evenodd" d="M337.741 192.964C337.472 193.593 337.885 194.868 338.604 193.934C338.55 193.539 338.622 193.143 338.64 192.748L337.741 192.964Z" fill="white"/>
<path d="M338.119 194.329C337.993 194.329 337.867 194.257 337.777 194.114C337.58 193.826 337.544 193.287 337.688 192.946L337.705 192.91L338.694 192.658V192.73L338.676 193.125C338.658 193.395 338.64 193.646 338.676 193.916V193.934L338.658 193.952C338.478 194.203 338.298 194.329 338.119 194.329ZM337.795 193.018C337.688 193.323 337.723 193.808 337.885 194.042C337.957 194.15 338.029 194.203 338.119 194.203C338.245 194.203 338.388 194.096 338.532 193.916C338.496 193.646 338.514 193.377 338.55 193.125L338.568 192.82L337.795 193.018Z" fill="black"/>
<path fill-rule="evenodd" clip-rule="evenodd" d="M337.831 191.742C337.346 191.778 336.951 192.371 337.202 192.82C337.544 193.431 338.28 192.766 338.748 192.82C339.287 192.838 339.718 193.395 340.149 192.928C340.634 192.407 339.933 191.904 339.412 191.67L337.831 191.742Z" fill="#F6D2A2"/>
<path d="M339.772 193.179C339.61 193.179 339.448 193.107 339.287 193.036C339.125 192.964 338.945 192.892 338.748 192.892H338.694C338.55 192.892 338.388 192.946 338.209 193.018C338.011 193.089 337.813 193.143 337.634 193.143C337.418 193.143 337.256 193.053 337.149 192.856C337.023 192.64 337.041 192.389 337.167 192.155C337.31 191.886 337.562 191.724 337.831 191.688L339.43 191.616H339.448C339.844 191.778 340.293 192.083 340.383 192.443C340.419 192.622 340.365 192.802 340.221 192.964C340.077 193.125 339.934 193.179 339.772 193.179ZM338.766 192.784C338.963 192.784 339.161 192.874 339.341 192.946C339.502 193.018 339.646 193.071 339.79 193.071C339.916 193.071 340.023 193.018 340.131 192.91C340.257 192.784 340.293 192.64 340.275 192.496C340.203 192.191 339.772 191.904 339.43 191.76L337.867 191.832C337.634 191.85 337.418 192.011 337.292 192.227C337.185 192.425 337.185 192.64 337.274 192.82C337.364 192.982 337.472 193.053 337.652 193.053C337.813 193.053 337.993 192.982 338.173 192.928C338.37 192.856 338.532 192.802 338.712 192.802C338.712 192.766 338.73 192.766 338.766 192.784Z" fill="#231F20"/>
<path fill-rule="evenodd" clip-rule="evenodd" d="M337.777 191.724C337.741 190.879 339.358 190.772 339.538 191.472C339.736 192.191 337.849 192.353 337.777 191.724Z" fill="black"/>
</g>
<g clip-path="url(#clip4)">
<path d="M348.177 156.422L346.217 148.312C346.189 148.173 346.097 148.033 345.973 147.903C345.85 147.772 345.704 147.684 345.578 147.638L337.6 145.302C337.316 145.22 336.921 145.348 336.715 145.544L330.666 151.285C330.546 151.399 330.426 151.555 330.389 151.755L348.131 156.961C348.2 156.772 348.205 156.582 348.177 156.422Z" fill="#9B4F96"/>
<path d="M330.369 151.712C330.334 151.849 330.33 151.997 330.359 152.114L332.298 160.224C332.326 160.363 332.417 160.503 332.541 160.633C332.665 160.763 332.811 160.852 332.937 160.898L340.914 163.234C341.198 163.315 341.594 163.188 341.8 162.992L347.848 157.25C347.946 157.158 348.044 157.044 348.091 156.897L330.369 151.712Z" fill="#68217A"/>
<path d="M340.144 157.834C338.908 158.14 337.54 157.787 336.602 156.799C335.21 155.333 335.271 153.004 336.737 151.613C338.203 150.221 340.531 150.282 341.923 151.748C342.861 152.736 343.143 154.12 342.761 155.349L344.916 155.988C345.507 154.023 345.067 151.798 343.552 150.201C341.305 147.834 337.558 147.737 335.191 149.984C332.823 152.231 332.726 155.978 334.973 158.345C336.478 159.931 338.666 160.496 340.649 160.018L340.144 157.834ZM342.425 158.084L342.985 157.738L342.552 157.282L343.062 156.798L343.588 157.351L344.385 156.843L344.89 157.375L344.104 157.873L344.496 158.286L345.282 157.787L345.777 158.309L344.991 158.807L345.238 159.068L344.728 159.552L344.388 159.194L343.828 159.539L344.261 159.995L343.75 160.48L343.225 159.926L342.449 160.414L341.944 159.882L342.72 159.394L342.328 158.981L341.553 159.47L341.058 158.948L341.833 158.46L341.586 158.199L342.096 157.715L342.436 158.073L342.425 158.084ZM342.92 158.605L343.312 159.018L343.872 158.672L343.48 158.259L342.92 158.605Z" fill="white"/>
</g>
<g clip-path="url(#clip5)">
<path d="M270.599 174.219C270.599 176.233 272.565 178.113 275.666 179.173C275.046 182.29 275.555 184.802 277.252 185.781C278.997 186.787 281.596 186.09 284.063 183.934C286.467 186.003 288.898 186.818 290.593 185.836C292.336 184.827 292.866 182.145 292.23 178.931C295.459 177.863 297.266 176.26 297.266 174.219C297.266 172.252 295.295 170.55 292.237 169.497C292.922 166.15 292.341 163.699 290.574 162.68C288.87 161.697 286.411 162.554 283.971 164.677C281.433 162.423 278.999 161.735 277.233 162.757C275.53 163.743 275.044 166.301 275.666 169.475C272.67 170.52 270.599 172.26 270.599 174.219Z" fill="white"/>
<path d="M291.588 170.542C291.343 170.457 291.088 170.377 290.826 170.302C290.869 170.126 290.909 169.952 290.944 169.782C291.521 166.98 291.144 164.724 289.855 163.981C288.62 163.268 286.599 164.011 284.558 165.787C284.362 165.958 284.165 166.138 283.969 166.328C283.838 166.203 283.707 166.081 283.576 165.965C281.438 164.067 279.294 163.266 278.007 164.012C276.773 164.726 276.407 166.848 276.926 169.502C276.977 169.759 277.035 170.021 277.102 170.287C276.798 170.373 276.505 170.465 276.225 170.563C273.718 171.437 272.116 172.807 272.116 174.228C272.116 175.696 273.835 177.168 276.447 178.06C276.653 178.131 276.867 178.197 277.087 178.261C277.016 178.549 276.954 178.831 276.901 179.106C276.406 181.715 276.793 183.786 278.024 184.496C279.295 185.229 281.429 184.476 283.507 182.659C283.672 182.516 283.836 182.364 284.001 182.204C284.215 182.41 284.429 182.605 284.642 182.788C286.654 184.52 288.642 185.219 289.872 184.507C291.142 183.772 291.555 181.547 291.019 178.84C290.978 178.633 290.931 178.422 290.877 178.207C291.027 178.162 291.174 178.116 291.318 178.069C294.033 177.169 295.799 175.715 295.799 174.228C295.799 172.802 294.146 171.422 291.588 170.542Z" fill="#53C1DE"/>
<path d="M291 177.109C290.87 177.151 290.737 177.193 290.602 177.233C290.302 176.284 289.898 175.275 289.403 174.233C289.875 173.215 290.264 172.219 290.555 171.276C290.797 171.347 291.033 171.42 291.259 171.498C293.451 172.253 294.787 173.368 294.787 174.228C294.787 175.143 293.344 176.332 291 177.109ZM290.027 179.036C290.264 180.233 290.298 181.316 290.141 182.162C290 182.922 289.716 183.429 289.365 183.632C288.619 184.064 287.023 183.502 285.302 182.021C285.104 181.851 284.905 181.67 284.706 181.478C285.373 180.748 286.04 179.9 286.691 178.958C287.836 178.856 288.918 178.69 289.899 178.463C289.947 178.658 289.99 178.849 290.027 179.036ZM280.19 183.557C279.461 183.815 278.88 183.822 278.529 183.62C277.782 183.189 277.472 181.526 277.895 179.295C277.944 179.039 278.002 178.777 278.068 178.508C279.038 178.723 280.112 178.877 281.26 178.97C281.915 179.892 282.601 180.74 283.293 181.482C283.142 181.628 282.991 181.767 282.842 181.898C281.923 182.701 281.002 183.271 280.19 183.557ZM276.774 177.103C275.619 176.708 274.666 176.195 274.012 175.636C273.425 175.133 273.128 174.633 273.128 174.228C273.128 173.366 274.414 172.266 276.558 171.518C276.818 171.427 277.091 171.342 277.373 171.261C277.67 172.225 278.058 173.233 278.528 174.252C278.052 175.287 277.658 176.311 277.359 177.286C277.157 177.228 276.962 177.167 276.774 177.103ZM277.919 169.308C277.474 167.034 277.77 165.318 278.514 164.887C279.306 164.428 281.058 165.082 282.905 166.722C283.023 166.827 283.141 166.937 283.26 167.05C282.572 167.789 281.892 168.63 281.242 169.547C280.129 169.65 279.062 169.816 278.082 170.038C278.021 169.79 277.966 169.546 277.919 169.308ZM288.135 171.831C287.901 171.426 287.66 171.031 287.415 170.646C288.171 170.742 288.894 170.869 289.574 171.024C289.37 171.678 289.116 172.362 288.816 173.063C288.602 172.655 288.374 172.244 288.135 171.831ZM283.969 167.773C284.436 168.279 284.903 168.843 285.363 169.455C284.9 169.434 284.431 169.422 283.958 169.422C283.49 169.422 283.024 169.433 282.564 169.455C283.024 168.848 283.495 168.284 283.969 167.773ZM279.777 171.838C279.542 172.244 279.319 172.653 279.108 173.062C278.813 172.364 278.561 171.676 278.355 171.013C279.031 170.862 279.752 170.738 280.503 170.645C280.254 171.032 280.011 171.431 279.777 171.838V171.838ZM280.524 177.883C279.748 177.797 279.017 177.68 278.342 177.533C278.551 176.857 278.808 176.156 279.109 175.442C279.321 175.851 279.545 176.26 279.781 176.667H279.781C280.02 177.082 280.269 177.488 280.524 177.883ZM283.997 180.754C283.518 180.237 283.039 179.664 282.572 179.049C283.026 179.067 283.488 179.076 283.958 179.076C284.441 179.076 284.918 179.065 285.387 179.044C284.926 179.671 284.461 180.244 283.997 180.754ZM288.826 175.405C289.143 176.127 289.409 176.825 289.621 177.489C288.935 177.645 288.193 177.772 287.412 177.865C287.658 177.476 287.901 177.074 288.139 176.66C288.38 176.242 288.609 175.823 288.826 175.405ZM287.263 176.155C286.893 176.797 286.512 177.409 286.127 177.988C285.424 178.038 284.698 178.064 283.958 178.064C283.221 178.064 282.504 178.041 281.814 177.996C281.412 177.41 281.024 176.796 280.656 176.16H280.656C280.289 175.527 279.952 174.888 279.646 174.252C279.952 173.615 280.288 172.975 280.653 172.343L280.653 172.343C281.019 171.709 281.404 171.097 281.801 170.515C282.506 170.462 283.228 170.434 283.958 170.434H283.958C284.691 170.434 285.414 170.462 286.118 170.516C286.51 171.094 286.892 171.703 287.259 172.338C287.631 172.979 287.972 173.615 288.28 174.238C287.973 174.872 287.632 175.514 287.263 176.155ZM289.35 164.857C290.143 165.314 290.451 167.159 289.953 169.577C289.921 169.732 289.885 169.889 289.847 170.048C288.864 169.822 287.797 169.653 286.68 169.548C286.029 168.621 285.355 167.779 284.678 167.05C284.86 166.874 285.042 166.708 285.223 166.55C286.971 165.028 288.605 164.428 289.35 164.857Z" fill="white"/>
<path d="M283.958 172.113C285.126 172.113 286.073 173.06 286.073 174.228C286.073 175.396 285.126 176.343 283.958 176.343C282.79 176.343 281.843 175.396 281.843 174.228C281.843 173.06 282.79 172.113 283.958 172.113Z" fill="#53C1DE"/>
</g>
<g clip-path="url(#clip6)">
<path d="M229.867 146.124L222.783 148.003C222.339 148.125 221.971 148.493 221.847 148.939L219.92 156.071C219.796 156.531 219.905 157.053 220.242 157.39L225.44 162.588C225.778 162.925 226.305 163.029 226.765 162.906L228.642 162.389C229.496 162.099 229.698 161.896 229.958 161.636C230.805 160.789 230.777 159.793 229.884 158.9L224.752 153.768C224.679 153.696 224.534 153.626 224.463 153.697L223.891 154.268C223.819 154.341 223.764 154.61 223.837 154.683L228.969 159.815C229.365 160.211 229.401 160.963 228.396 161.297L226.447 161.821C226.38 161.841 226.303 161.824 226.253 161.775L221.055 156.577C221.006 156.528 221.014 156.422 221.032 156.354L222.949 149.24C222.967 149.174 223.029 149.112 223.095 149.094L230.153 147.231C230.221 147.214 230.254 147.277 230.305 147.328L235.503 152.526C235.552 152.575 235.619 152.605 235.601 152.671L233.719 159.751C233.704 159.813 233.656 159.861 233.591 159.88L231.756 160.343C231.701 160.357 231.653 160.391 231.638 160.443C231.5 160.944 231.465 161.027 231.269 161.431C231.221 161.531 231.157 161.684 231.507 161.586L233.9 160.971C234.128 160.911 234.335 160.79 234.499 160.626C234.666 160.459 234.786 160.252 234.847 160.025L236.707 152.964C236.829 152.502 236.653 152.05 236.316 151.712L231.118 146.514C230.78 146.177 230.328 146.001 229.867 146.124ZM231.519 154.862C230.327 156.054 229.736 155.987 229.056 155.482C228.982 155.429 228.851 155.406 228.786 155.471L228.204 156.054C228.132 156.126 228.161 156.271 228.233 156.343C228.992 157.102 230.324 157.609 232.295 155.638C233.722 154.211 233.986 152.838 233.004 151.857C232.031 150.884 231.119 151.286 229.552 152.487C227.968 153.701 227.733 153.749 227.405 153.422C227.135 153.151 226.895 152.671 227.931 151.635C228.856 150.71 229.396 150.567 230.16 151.05C230.23 151.097 230.326 151.086 230.387 151.025L230.971 150.44C231.007 150.404 231.027 150.355 231.027 150.305C231.023 150.252 231.002 150.205 230.961 150.171C229.797 149.187 228.582 149.4 227.139 150.844C225.855 152.128 225.632 153.436 226.54 154.344C227.526 155.33 228.56 154.84 229.915 153.73C231.533 152.4 231.864 152.501 232.154 152.791C232.657 153.295 232.467 153.913 231.519 154.862Z" fill="#83CD29"/>
</g>
<rect y="212.788" width="570.596" height="30.6646" rx="15.3323" fill="#5A3002"/>
<path d="M0 228.12C0 219.652 6.86451 212.788 15.3323 212.788H555.263C563.731 212.788 570.596 219.652 570.596 228.12V228.12H0V228.12Z" fill="#783D13" fill-opacity="0.5"/>
<defs>
<clipPath id="clip0">
<rect width="114.992" height="114.992" fill="white" transform="matrix(-1 0 0 1 114.992 97.7953)"/>
</clipPath>
<clipPath id="clip1">
<rect width="91.9939" height="91.9939" fill="white" transform="translate(451.537 129.227)"/>
</clipPath>
<clipPath id="clip2">
<rect width="19.932" height="19.932" fill="white" transform="translate(222.404 191.463) rotate(-21.9877)"/>
</clipPath>
<clipPath id="clip3">
<rect width="22.9985" height="22.9985" fill="white" transform="translate(327.248 185.956)"/>
</clipPath>
<clipPath id="clip4">
<rect width="19.1654" height="19.1654" fill="white" transform="translate(339.615 140.726) rotate(46.4905)"/>
</clipPath>
<clipPath id="clip5">
<rect width="26.8316" height="24.1065" fill="white" transform="translate(270.519 162.191)"/>
</clipPath>
<clipPath id="clip6">
<rect width="18.3988" height="18.3988" fill="white" transform="translate(215.322 154.503) rotate(-45)"/>
</clipPath>
</defs>
</svg>