 
<svg width="372" height="274" viewBox="0 0 372 274" fill="none" xmlns="http://www.w3.org/2000/svg">
<g opacity="0.9">
<circle cx="24.1353" cy="115.069" r="22.2607" transform="rotate(-0.463123 24.1353 115.069)" stroke="#E5E5E5" stroke-opacity="0.8" stroke-width="1.93571"/>
<circle cx="110.677" cy="44.6812" r="22.2607" transform="rotate(-0.463123 110.677 44.6812)" stroke="#E5E5E5" stroke-opacity="0.8" stroke-width="1.93571"/>
<circle cx="200.279" cy="113.645" r="22.2607" transform="rotate(-0.463123 200.279 113.645)" stroke="#E5E5E5" stroke-opacity="0.8" stroke-width="1.93571"/>
<circle cx="346.669" cy="23.4155" r="22.2607" transform="rotate(-0.463123 346.669 23.4155)" stroke="#E5E5E5" stroke-opacity="0.8" stroke-width="1.93571"/>
<circle cx="347.389" cy="112.456" r="22.2607" transform="rotate(-0.463123 347.389 112.456)" stroke="#E5E5E5" stroke-opacity="0.8" stroke-width="1.93571"/>
<circle cx="348.109" cy="201.496" r="22.2607" transform="rotate(-0.463123 348.109 201.496)" stroke="#E5E5E5" stroke-opacity="0.8" stroke-width="1.93571"/>
<circle cx="204.98" cy="216.203" r="22.2607" transform="rotate(-0.463123 204.98 216.203)" stroke="#E5E5E5" stroke-opacity="0.8" stroke-width="1.93571"/>
<circle cx="32.9732" cy="250.501" r="22.2607" transform="rotate(-0.463123 32.9732 250.501)" stroke="#E5E5E5" stroke-opacity="0.8" stroke-width="1.93571"/>
<line x1="37.007" y1="96.7328" x2="92.8436" y2="59.5017" stroke="#E5E5E5" stroke-opacity="0.8" stroke-width="1.93571"/>
<line x1="126.817" y1="59.2314" x2="185.2" y2="97.475" stroke="#E5E5E5" stroke-opacity="0.8" stroke-width="1.93571"/>
<line x1="177.089" y1="116.736" x2="45.4806" y2="119.735" stroke="#E5E5E5" stroke-opacity="0.8" stroke-width="1.93571"/>
<line x1="27.9625" y1="229.269" x2="25.2915" y2="138.309" stroke="#E5E5E5" stroke-opacity="0.8" stroke-width="1.93571"/>
<line x1="54.0386" y1="241.633" x2="183.555" y2="219.292" stroke="#E5E5E5" stroke-opacity="0.8" stroke-width="1.93571"/>
<line x1="192.811" y1="197.822" x2="41.2674" y2="129.359" stroke="#E5E5E5" stroke-opacity="0.8" stroke-width="1.93571"/>
<line x1="131.861" y1="39.6725" x2="323.381" y2="24.5739" stroke="#E5E5E5" stroke-opacity="0.8" stroke-width="1.93571"/>
<line x1="349.744" y1="44.7267" x2="348.168" y2="89.2624" stroke="#E5E5E5" stroke-opacity="0.8" stroke-width="1.93571"/>
<line x1="221.567" y1="110.569" x2="324.172" y2="111.675" stroke="#E5E5E5" stroke-opacity="0.8" stroke-width="1.93571"/>
<line x1="350.479" y1="135.702" x2="348.903" y2="180.238" stroke="#E5E5E5" stroke-opacity="0.8" stroke-width="1.93571"/>
<path d="M114.905 55.3171C114.688 55.3189 114.534 55.2659 114.443 55.1582C114.37 55.0504 114.332 54.8972 114.331 54.6984C114.327 54.301 114.413 53.686 114.587 52.8535C114.779 52.0931 114.874 51.469 114.87 50.9813C114.858 49.5721 114.741 48.498 114.519 47.7591L113.678 47.7659C112.938 47.7719 111.971 47.7616 110.778 47.7351L108.231 47.7286L104.572 47.7582L104.635 48.8146C104.642 49.6457 104.786 50.6834 105.067 51.9277C105.161 52.4328 105.247 52.9471 105.323 53.4704C105.418 53.9755 105.467 54.4358 105.47 54.8514L105.472 55.0953C105.293 55.2774 105.104 55.3692 104.905 55.3708C104.435 55.3746 104.06 54.8266 103.781 53.7268C103.501 52.6089 103.354 51.264 103.341 49.6923C103.336 49.06 103.358 48.4365 103.408 47.8218C103.01 47.8069 102.739 47.7459 102.593 47.6387C102.448 47.5134 102.374 47.3243 102.372 47.0714C102.37 46.8726 102.423 46.7367 102.531 46.6635C102.657 46.5903 102.873 46.5343 103.18 46.4957L103.147 45.7642L103.218 44.517C103.328 42.4745 103.505 40.8109 103.747 39.5262C103.99 38.2415 104.523 37.126 105.346 36.1799C106.17 35.2337 107.412 34.7539 109.074 34.7405C110.971 34.7251 112.461 35.7339 113.543 37.7667C114.626 39.7996 115.367 42.0701 115.767 44.5782C116.166 47.0863 116.373 49.2437 116.388 51.0503C116.393 51.7007 116.38 52.2699 116.348 52.758C116.315 53.228 116.248 53.8157 116.145 54.5212C115.734 55.0484 115.32 55.3138 114.905 55.3171ZM114.402 46.7031C114.031 43.3637 113.396 40.749 112.495 38.8593C111.595 36.9514 110.259 36.0046 108.489 36.0189C107.17 36.0296 106.199 36.6517 105.577 37.8853C104.972 39.1007 104.612 40.4045 104.497 41.7966C104.382 43.1887 104.331 44.7519 104.345 46.4863L114.402 46.7031Z" fill="#E5E5E5" fill-opacity="0.8"/>
<path d="M28.1851 123.743C27.7342 123.837 27.4163 123.623 27.2314 123.1C27.0463 122.56 26.9406 121.766 26.914 120.718C26.8655 119.183 26.8009 117.901 26.7203 116.871C26.6576 115.824 26.5417 114.885 26.3723 114.056C24.6986 114.864 23.0425 115.609 21.4039 116.291C19.7832 116.955 18.9727 117.277 18.9726 117.259L19.0735 123.031C19.0756 123.302 18.9144 123.475 18.5898 123.55C18.157 123.643 17.8659 123.402 17.7167 122.825C17.5855 122.23 17.4876 121.3 17.4232 120.036C17.3779 118.898 17.3172 118.095 17.2411 117.625C16.7373 117.882 16.3047 118.003 15.9432 117.988C15.8698 117.844 15.8312 117.547 15.8276 117.095C15.9717 117.04 16.1428 116.975 16.3409 116.901C16.5571 116.827 16.71 116.744 16.7996 116.653C16.9072 116.544 16.9601 116.39 16.9585 116.191C16.9512 115.288 16.8496 113.898 16.6538 112.02C16.4413 110.324 16.3306 108.924 16.3217 107.822L16.3388 106.576C16.3919 106.449 16.4545 106.367 16.5265 106.33C16.6165 106.293 16.7338 106.274 16.8783 106.273C17.1855 106.271 17.3398 106.369 17.3414 106.568L18.5296 116.097C19.0344 115.967 19.8719 115.635 21.0419 115.101C22.212 114.568 24.0117 113.704 26.4412 112.51L26.5009 106.493C26.4952 105.789 26.7543 105.434 27.2783 105.43C27.4951 105.428 27.6402 105.509 27.7138 105.671C27.8055 105.832 27.8347 106.103 27.8017 106.483L27.8125 111.171C27.8253 112.761 27.9324 114.829 28.1336 117.375C28.1919 117.88 28.241 118.368 28.281 118.837C28.3388 119.288 28.3875 119.722 28.427 120.137C28.5444 121.256 28.6224 121.969 28.6611 122.276C28.7176 122.564 28.801 122.826 28.9113 123.06C28.8239 123.422 28.5818 123.65 28.1851 123.743Z" fill="#E5E5E5" fill-opacity="0.8"/>
<path d="M202.855 124.294C199.404 124.322 196.729 124.154 194.829 123.79C194.268 114.743 193.781 109.272 193.368 107.379L192.557 107.575C192.124 107.669 191.709 107.771 191.313 107.883C190.916 107.977 190.493 108.115 190.043 108.3L190.008 107.379C190.006 107.071 190.337 106.789 191.004 106.53C191.67 106.254 192.472 106.04 193.411 105.888C194.367 105.717 195.215 105.629 195.956 105.623C196.769 105.617 197.701 105.754 198.751 106.034C199.819 106.315 200.735 106.741 201.498 107.313C202.262 107.867 202.646 108.532 202.653 109.309C202.66 110.194 202.323 110.983 201.642 111.675C200.979 112.349 200.107 112.835 199.025 113.132C200.617 113.391 202.102 113.866 203.481 114.56C204.86 115.235 205.969 116.084 206.808 117.108C207.647 118.112 208.071 119.202 208.081 120.376C208.092 121.731 207.576 122.72 206.533 123.343C205.49 123.966 204.264 124.283 202.855 124.294ZM202.138 122.755C203.475 122.744 204.503 122.591 205.224 122.297C205.944 121.984 206.3 121.33 206.292 120.337C206.283 119.289 205.96 118.415 205.322 117.716C204.702 116.998 203.966 116.444 203.114 116.053C202.279 115.645 201.237 115.219 199.987 114.778C198.99 114.443 198.247 114.15 197.757 113.901C197.285 113.634 197.048 113.338 197.046 113.013C197.044 112.778 197.16 112.596 197.393 112.468C197.627 112.34 198.041 112.156 198.636 111.916C199.446 111.638 200.076 111.344 200.526 111.033C200.993 110.705 201.224 110.251 201.219 109.673C201.212 108.824 200.692 108.178 199.659 107.734C198.625 107.273 197.467 107.047 196.184 107.058C195.823 107.061 195.39 107.1 194.885 107.177C195.379 110.208 195.725 112.762 195.922 114.838C196.119 116.896 196.265 119.289 196.36 122.016C196.614 122.267 197.257 122.451 198.288 122.569C199.319 122.688 200.602 122.749 202.138 122.755Z" fill="#E5E5E5" fill-opacity="0.8"/>
<path d="M345.893 33.74C345.604 33.7062 345.333 33.6903 345.08 33.6924C344.845 33.6762 344.682 33.6685 344.592 33.6692C344.519 33.6518 344.483 33.6159 344.482 33.5617C344.351 32.9846 344.257 32.4795 344.199 32.0464C344.141 31.5951 344.102 31.1799 344.081 30.8007C344.058 30.2588 344.009 29.7263 343.932 29.2029C343.874 28.6614 343.741 27.9488 343.536 27.0652C342.525 27.2359 341.848 27.3227 341.505 27.3255C341.144 27.3284 340.872 27.2674 340.691 27.1424C340.509 26.9993 340.417 26.7742 340.414 26.4671C340.413 26.2864 340.511 26.1953 340.71 26.1937L341.522 26.1058C341.649 26.0867 342.226 26.0098 343.255 25.875C343.215 25.3514 343.134 24.277 343.012 22.6519C342.947 21.3516 342.858 20.3135 342.743 19.5375L339.358 19.863C339.106 20.0276 338.908 20.1105 338.764 20.1117C338.546 19.9509 338.408 19.7442 338.352 19.4917C338.782 19.0185 339.818 18.6217 341.459 18.3013C343.119 17.9807 344.915 17.8126 346.848 17.797C349.269 17.7774 351.349 18.0226 353.087 18.5325C354.826 19.0243 355.772 19.8026 355.925 20.8673C355.365 20.8718 354.822 20.813 354.297 20.6908C353.772 20.5685 353.111 20.3842 352.314 20.1377C351.3 19.8026 350.367 19.5482 349.517 19.3744C348.684 19.2004 347.744 19.1177 346.696 19.1262C346.028 19.1316 345.297 19.1917 344.503 19.3065C344.516 20.9866 344.579 23.109 344.69 25.6737L345.637 25.5847C348.526 25.3265 350.214 25.1954 350.702 25.1915C350.937 25.1896 351.1 25.2063 351.19 25.2417C351.281 25.2591 351.353 25.2946 351.408 25.3484C351.43 25.8902 350.919 26.2828 349.873 26.5261C348.827 26.7514 347.166 26.9184 344.89 27.0271C344.988 27.9116 345.169 29.0665 345.433 30.4916C345.679 31.8266 345.832 32.9094 345.893 33.74Z" fill="#E5E5E5" fill-opacity="0.8"/>
<path d="M346.966 119.529C345.719 119.539 344.651 119.204 343.76 118.525C342.869 117.846 342.184 116.912 341.705 115.723C341.243 114.534 341.007 113.181 340.994 111.664C340.981 109.965 341.365 108.354 342.148 106.83C342.93 105.288 343.959 104.051 345.234 103.12C346.528 102.17 347.87 101.689 349.261 101.678C350.435 101.668 351.34 101.923 351.977 102.442C352.614 102.961 352.935 103.572 352.94 104.277C352.944 104.692 352.82 105.073 352.57 105.418C352.338 105.763 351.997 106.028 351.547 106.212C351.492 106.104 351.463 105.933 351.461 105.698C351.46 105.481 351.485 105.264 351.537 105.047C351.571 104.758 351.588 104.55 351.587 104.423C351.585 104.243 351.557 104.089 351.501 103.963C351.243 103.333 350.554 103.022 349.434 103.032C349.127 103.034 348.766 103.064 348.351 103.122C347.395 103.256 346.45 103.742 345.517 104.581C344.584 105.401 343.825 106.428 343.239 107.662C342.652 108.895 342.364 110.153 342.375 111.436C342.384 112.556 342.573 113.62 342.943 114.629C343.33 115.62 343.878 116.419 344.588 117.028C345.298 117.636 346.14 117.937 347.116 117.929C348.38 117.918 349.427 117.756 350.255 117.443C351.102 117.129 351.929 116.652 352.737 116.013C352.827 115.94 352.926 115.903 353.034 115.902C353.233 115.901 353.37 116.017 353.444 116.251C353.538 116.684 353.252 117.156 352.588 117.668C351.924 118.179 351.06 118.619 349.997 118.989C348.934 119.341 347.923 119.521 346.966 119.529Z" fill="#E5E5E5" fill-opacity="0.8"/>
<path d="M355.042 210.081C354.428 210.086 354.01 209.764 353.788 209.116C353.584 208.485 353.479 207.79 353.473 207.032L353.548 206.245C352.667 206.812 351.623 207.263 350.415 207.598C349.225 207.933 347.971 208.106 346.652 208.117C345.695 208.124 344.844 207.914 344.1 207.487C343.355 207.041 342.772 206.441 342.351 205.685C341.947 204.912 341.741 204.037 341.733 203.061C341.721 201.58 342.288 200.175 343.434 198.847C344.579 197.501 345.988 196.405 347.662 195.561C349.353 194.698 350.921 194.206 352.365 194.086C353.088 194.008 353.703 194.166 354.212 194.559C354.721 194.935 354.978 195.465 354.984 196.152C354.604 196.155 354.152 196.059 353.626 195.865C353.554 195.847 353.364 195.795 353.056 195.707C352.748 195.619 352.432 195.576 352.107 195.579C350.824 195.589 349.463 195.971 348.024 196.723C346.602 197.475 345.409 198.47 344.443 199.706C343.496 200.924 343.027 202.202 343.038 203.539C343.043 204.171 343.237 204.72 343.62 205.187C344.021 205.636 344.512 205.984 345.092 206.232C345.69 206.462 346.287 206.575 346.884 206.57C348.311 206.558 349.485 206.495 350.405 206.379C351.326 206.245 352.118 205.922 352.782 205.411C353.446 204.882 353.774 204.084 353.766 203.018C353.762 202.512 353.65 202.161 353.432 201.964L348.608 202.003C348.355 202.005 348.11 201.881 347.873 201.63C347.655 201.378 347.544 201.126 347.542 200.873C347.539 200.422 347.672 200.195 347.943 200.193C348.16 200.191 348.504 200.279 348.975 200.455C349.41 200.651 349.781 200.747 350.089 200.744C350.486 200.741 351.1 200.682 351.93 200.567C352.074 200.548 352.336 200.519 352.715 200.479C353.094 200.44 353.437 200.419 353.745 200.417C354.052 200.414 354.351 200.547 354.642 200.816C354.951 201.067 355.098 201.354 355.083 201.68L354.971 207.941C355.099 208.193 355.318 208.408 355.626 208.586C355.735 208.639 355.826 208.702 355.899 208.774C355.972 208.863 356.018 208.953 356.037 209.043C356.129 209.241 356.04 209.459 355.771 209.696C355.502 209.951 355.259 210.08 355.042 210.081Z" fill="#E5E5E5" fill-opacity="0.8"/>
<path d="M28.8799 257.616C28.8781 257.399 28.8949 257.236 28.9301 257.128C28.9833 257.001 29.1002 256.937 29.2809 256.935C29.4435 256.934 29.6244 256.968 29.8237 257.039C30.0411 257.11 30.2495 257.189 30.449 257.278C30.9566 257.491 31.4096 257.65 31.8079 257.755C32.2243 257.86 32.7396 257.91 33.3539 257.905C35.5941 257.887 37.2699 257.34 38.3814 256.265C39.5109 255.19 40.0688 253.795 40.0549 252.078C40.0425 250.543 39.598 249.2 38.7215 248.051C37.8448 246.884 36.7353 245.971 35.3931 245.314C34.0688 244.656 32.7197 244.269 31.3456 244.154L32.983 255.604C32.9854 255.911 32.9423 256.165 32.8536 256.364C32.7829 256.564 32.6031 256.664 32.314 256.667C32.242 256.703 32.1026 256.217 31.8957 255.207C31.6888 254.197 31.4058 252.708 31.0466 250.742C30.6306 248.451 30.3097 246.755 30.084 245.655C29.8582 244.536 29.6814 243.896 29.5536 243.735C28.0541 243.747 26.8263 243.838 25.8701 244.008C24.9138 244.161 24.1835 244.338 23.6792 244.541C23.175 244.744 22.968 244.845 23.0584 244.844C22.9677 244.809 22.9041 244.755 22.8673 244.683C22.8305 244.593 22.8024 244.467 22.783 244.304C22.7455 244.142 22.7175 244.025 22.6988 243.953C22.6953 243.519 23.081 243.173 23.8558 242.914C24.6306 242.654 25.4422 242.476 26.2905 242.379C27.157 242.282 27.7347 242.232 28.0238 242.229C29.9569 242.214 31.9744 242.595 34.0765 243.373C36.1785 244.133 37.9492 245.266 39.3887 246.772C40.8282 248.278 41.5563 250.07 41.5731 252.147C41.5856 253.701 41.208 255.032 40.44 256.14C39.6719 257.231 38.6579 258.061 37.3978 258.631C36.1557 259.201 34.8211 259.492 33.3939 259.504C32.2377 259.513 31.1974 259.341 30.2731 258.987C29.3488 258.633 28.8844 258.176 28.8799 257.616Z" fill="#E5E5E5" fill-opacity="0.8"/>
<path d="M202.38 226.894C200.88 226.906 199.785 226.635 199.094 226.081C198.421 225.526 198.079 224.517 198.067 223.054L198.397 216.98L198.35 211.154C198.346 210.702 198.434 210.413 198.614 210.285C198.794 210.139 199.19 210.063 199.805 210.058L201.648 210.098C203.961 210.205 206.22 210.25 208.424 210.232C208.894 210.229 209.265 210.361 209.538 210.63C209.83 210.899 209.977 211.268 209.981 211.738C209.982 211.828 209.955 211.9 209.901 211.955C209.848 212.01 209.785 212.028 209.712 212.011L208.435 211.533L199.954 211.819C199.846 211.819 199.783 211.811 199.764 211.793C199.838 211.937 199.875 212.063 199.876 212.172L199.915 216.968C200.746 217.016 201.55 217.036 202.327 217.03C203.664 217.019 205.136 216.944 206.743 216.804C206.905 216.785 207.149 216.765 207.474 216.744C207.817 216.705 208.007 216.704 208.043 216.74C208.152 216.847 208.234 216.946 208.289 217.036C208.344 217.126 208.381 217.252 208.401 217.414C208.458 217.811 207.855 218.078 206.592 218.215C205.346 218.351 203.676 218.464 201.581 218.554C200.876 218.559 200.289 218.582 199.82 218.622C199.607 219.166 199.506 220.034 199.515 221.226L199.556 222.825L199.57 224.586C199.861 224.819 200.178 224.97 200.522 225.039C200.866 225.109 201.426 225.14 202.203 225.134C203.016 225.127 203.81 225.076 204.587 224.979C205.381 224.883 205.85 224.825 205.994 224.805C207.511 224.612 208.639 224.513 209.38 224.507C209.813 224.503 210.112 224.546 210.275 224.635C210.456 224.706 210.548 224.841 210.549 225.039C210.559 226.232 208.143 226.848 203.301 226.887L202.38 226.894Z" fill="#E5E5E5" fill-opacity="0.8"/>
</g>
</svg>